<?xml version="1.0" encoding="UTF-8" standalone="no"?><svg xmlns="http://www.w3.org/2000/svg" xmlns:xlink="http://www.w3.org/1999/xlink" contentScriptType="application/ecmascript" contentStyleType="text/css" height="662px" preserveAspectRatio="none" style="width:720px;height:662px;" version="1.1" viewBox="0 0 720 662" width="720px" zoomAndPan="magnify"><defs><filter height="300%" id="fpmgj75" width="300%" x="-1" y="-1"><feGaussianBlur result="blurOut" stdDeviation="2.0"/><feColorMatrix in="blurOut" result="blurOut2" type="matrix" values="0 0 0 0 0 0 0 0 0 0 0 0 0 0 0 0 0 0 .4 0"/><feOffset dx="4.0" dy="4.0" in="blurOut2" result="blurOut3"/><feBlend in="SourceGraphic" in2="blurOut3" mode="normal"/></filter></defs><g><!--class IFiltre--><rect fill="#FEFECE" filter="url(#fpmgj75)" height="48" style="stroke: #A80036; stroke-width: 1.5;" width="67" x="566.5" y="472"/><ellipse cx="581.5" cy="488" fill="#B4A7E5" rx="11" ry="11" style="stroke: #A80036; stroke-width: 1.0;"/><path d="M582.4531,484.7813 L582.4531,491.2969 L584.1719,491.2969 C584.625,491.2969 584.7656,491.3281 584.9375,491.4531 C585.1719,491.625 585.2813,491.875 585.2813,492.1563 C585.2813,492.7188 584.9219,493 584.1719,493 L579.0313,493 C578.625,493 578.4219,492.9531 578.2656,492.8281 C578.0469,492.6719 577.9063,492.4063 577.9063,492.1563 C577.9063,491.8594 578.0625,491.5781 578.3125,491.4219 C578.4688,491.3125 578.5938,491.2969 579.0313,491.2969 L580.75,491.2969 L580.75,484.7813 L579.0313,484.7813 C578.6094,484.7813 578.4219,484.75 578.2656,484.6406 C578.0469,484.4688 577.9063,484.2188 577.9063,483.9375 C577.9063,483.6563 578.0625,483.3594 578.3125,483.2031 C578.4688,483.1094 578.5938,483.0938 579.0313,483.0938 L584.1719,483.0938 C584.625,483.0938 584.7656,483.125 584.9375,483.2344 C585.1719,483.4063 585.2813,483.6719 585.2813,483.9375 C585.2813,484.2344 585.1406,484.5156 584.875,484.6719 C584.75,484.75 584.5625,484.7813 584.1719,484.7813 Z "/><text fill="#000000" font-family="sans-serif" font-size="12" font-style="italic" lengthAdjust="spacingAndGlyphs" textLength="35" x="595.5" y="492.1543">IFiltre</text><line style="stroke: #A80036; stroke-width: 1.5;" x1="567.5" x2="632.5" y1="504" y2="504"/><line style="stroke: #A80036; stroke-width: 1.5;" x1="567.5" x2="632.5" y1="512" y2="512"/><!--class FiltreMots--><rect fill="#FEFECE" filter="url(#fpmgj75)" height="73.6094" style="stroke: #A80036; stroke-width: 1.5;" width="103" x="580.5" y="580"/><ellipse cx="600" cy="596" fill="#ADD1B2" rx="11" ry="11" style="stroke: #A80036; stroke-width: 1.0;"/><path d="M602.3438,591.6719 L602.5156,591.75 C602.7344,591.4375 602.9375,591.3438 603.2344,591.3438 C603.5313,591.3438 603.8125,591.4844 603.9688,591.75 C604.0625,591.9063 604.0781,592.0313 604.0781,592.4688 L604.0781,593.8906 C604.0781,594.3125 604.0469,594.5 603.9375,594.6563 C603.7656,594.875 603.5,595.0156 603.2344,595.0156 C603.0156,595.0156 602.7813,594.9063 602.6406,594.7656 C602.5,594.6406 602.4688,594.5156 602.4063,594.1094 C602.3125,593.7031 602.1406,593.4844 601.6563,593.2031 C601.1875,592.9531 600.5781,592.7969 600,592.7969 C598.2656,592.7969 597.0156,594.1094 597.0156,595.8906 L597.0156,596.9844 C597.0156,598.6875 598.3125,599.7813 600.3594,599.7813 C601.125,599.7813 601.8125,599.6563 602.2344,599.3906 C602.4219,599.2969 602.4219,599.2969 602.875,598.8125 C603.0625,598.625 603.2656,598.5469 603.4844,598.5469 C603.9531,598.5469 604.3438,598.9375 604.3438,599.3906 C604.3438,599.7813 604.0156,600.2344 603.4375,600.6406 C602.6875,601.1875 601.5313,601.4844 600.3125,601.4844 C597.4219,601.4844 595.3125,599.5938 595.3125,597.0156 L595.3125,595.8906 C595.3125,593.1719 597.3125,591.0938 599.9375,591.0938 C600.8125,591.0938 601.4063,591.2344 602.3438,591.6719 Z "/><text fill="#000000" font-family="sans-serif" font-size="12" lengthAdjust="spacingAndGlyphs" textLength="61" x="615" y="600.1543">FiltreMots</text><line style="stroke: #A80036; stroke-width: 1.5;" x1="581.5" x2="682.5" y1="612" y2="612"/><text fill="#000000" font-family="sans-serif" font-size="11" lengthAdjust="spacingAndGlyphs" textLength="51" x="586.5" y="626.2104">listeMots</text><text fill="#000000" font-family="sans-serif" font-size="11" lengthAdjust="spacingAndGlyphs" textLength="91" x="586.5" y="639.0151">void: ajouterMot</text><line style="stroke: #A80036; stroke-width: 1.5;" x1="581.5" x2="682.5" y1="645.6094" y2="645.6094"/><!--class FiltreUtilisateurs--><rect fill="#FEFECE" filter="url(#fpmgj75)" height="60.8047" style="stroke: #A80036; stroke-width: 1.5;" width="141" x="404.5" y="586.5"/><ellipse cx="422.65" cy="602.5" fill="#ADD1B2" rx="11" ry="11" style="stroke: #A80036; stroke-width: 1.0;"/><path d="M424.9938,598.1719 L425.1656,598.25 C425.3844,597.9375 425.5875,597.8438 425.8844,597.8438 C426.1813,597.8438 426.4625,597.9844 426.6188,598.25 C426.7125,598.4063 426.7281,598.5313 426.7281,598.9688 L426.7281,600.3906 C426.7281,600.8125 426.6969,601 426.5875,601.1563 C426.4156,601.375 426.15,601.5156 425.8844,601.5156 C425.6656,601.5156 425.4313,601.4063 425.2906,601.2656 C425.15,601.1406 425.1188,601.0156 425.0563,600.6094 C424.9625,600.2031 424.7906,599.9844 424.3063,599.7031 C423.8375,599.4531 423.2281,599.2969 422.65,599.2969 C420.9156,599.2969 419.6656,600.6094 419.6656,602.3906 L419.6656,603.4844 C419.6656,605.1875 420.9625,606.2813 423.0094,606.2813 C423.775,606.2813 424.4625,606.1563 424.8844,605.8906 C425.0719,605.7969 425.0719,605.7969 425.525,605.3125 C425.7125,605.125 425.9156,605.0469 426.1344,605.0469 C426.6031,605.0469 426.9938,605.4375 426.9938,605.8906 C426.9938,606.2813 426.6656,606.7344 426.0875,607.1406 C425.3375,607.6875 424.1813,607.9844 422.9625,607.9844 C420.0719,607.9844 417.9625,606.0938 417.9625,603.5156 L417.9625,602.3906 C417.9625,599.6719 419.9625,597.5938 422.5875,597.5938 C423.4625,597.5938 424.0563,597.7344 424.9938,598.1719 Z "/><text fill="#000000" font-family="sans-serif" font-size="12" lengthAdjust="spacingAndGlyphs" textLength="102" x="437.35" y="606.6543">FiltreUtilisateurs</text><line style="stroke: #A80036; stroke-width: 1.5;" x1="405.5" x2="544.5" y1="618.5" y2="618.5"/><text fill="#000000" font-family="sans-serif" font-size="11" lengthAdjust="spacingAndGlyphs" textLength="129" x="410.5" y="632.7104">void: ajouterUtilisateur</text><line style="stroke: #A80036; stroke-width: 1.5;" x1="405.5" x2="544.5" y1="639.3047" y2="639.3047"/><!--class Utilisateur--><rect fill="#FEFECE" filter="url(#fpmgj75)" height="86.4141" style="stroke: #A80036; stroke-width: 1.5;" width="96" x="398" y="154"/><ellipse cx="413" cy="170" fill="#ADD1B2" rx="11" ry="11" style="stroke: #A80036; stroke-width: 1.0;"/><path d="M415.3438,165.6719 L415.5156,165.75 C415.7344,165.4375 415.9375,165.3438 416.2344,165.3438 C416.5313,165.3438 416.8125,165.4844 416.9688,165.75 C417.0625,165.9063 417.0781,166.0313 417.0781,166.4688 L417.0781,167.8906 C417.0781,168.3125 417.0469,168.5 416.9375,168.6563 C416.7656,168.875 416.5,169.0156 416.2344,169.0156 C416.0156,169.0156 415.7813,168.9063 415.6406,168.7656 C415.5,168.6406 415.4688,168.5156 415.4063,168.1094 C415.3125,167.7031 415.1406,167.4844 414.6563,167.2031 C414.1875,166.9531 413.5781,166.7969 413,166.7969 C411.2656,166.7969 410.0156,168.1094 410.0156,169.8906 L410.0156,170.9844 C410.0156,172.6875 411.3125,173.7813 413.3594,173.7813 C414.125,173.7813 414.8125,173.6563 415.2344,173.3906 C415.4219,173.2969 415.4219,173.2969 415.875,172.8125 C416.0625,172.625 416.2656,172.5469 416.4844,172.5469 C416.9531,172.5469 417.3438,172.9375 417.3438,173.3906 C417.3438,173.7813 417.0156,174.2344 416.4375,174.6406 C415.6875,175.1875 414.5313,175.4844 413.3125,175.4844 C410.4219,175.4844 408.3125,173.5938 408.3125,171.0156 L408.3125,169.8906 C408.3125,167.1719 410.3125,165.0938 412.9375,165.0938 C413.8125,165.0938 414.4063,165.2344 415.3438,165.6719 Z "/><text fill="#000000" font-family="sans-serif" font-size="12" lengthAdjust="spacingAndGlyphs" textLength="64" x="427" y="174.1543">Utilisateur</text><line style="stroke: #A80036; stroke-width: 1.5;" x1="399" x2="493" y1="186" y2="186"/><text fill="#000000" font-family="sans-serif" font-size="11" lengthAdjust="spacingAndGlyphs" textLength="73" x="404" y="200.2104">pseudonyme</text><text fill="#000000" font-family="sans-serif" font-size="11" lengthAdjust="spacingAndGlyphs" textLength="25" x="404" y="213.0151">nom</text><text fill="#000000" font-family="sans-serif" font-size="11" lengthAdjust="spacingAndGlyphs" textLength="44" x="404" y="225.8198">prenom</text><line style="stroke: #A80036; stroke-width: 1.5;" x1="399" x2="493" y1="232.4141" y2="232.4141"/><!--class UtilisateurIA--><rect fill="#FEFECE" filter="url(#fpmgj75)" height="60.8047" style="stroke: #A80036; stroke-width: 1.5;" width="182" x="529" y="166.5"/><ellipse cx="578.25" cy="182.5" fill="#ADD1B2" rx="11" ry="11" style="stroke: #A80036; stroke-width: 1.0;"/><path d="M580.5938,178.1719 L580.7656,178.25 C580.9844,177.9375 581.1875,177.8438 581.4844,177.8438 C581.7813,177.8438 582.0625,177.9844 582.2188,178.25 C582.3125,178.4063 582.3281,178.5313 582.3281,178.9688 L582.3281,180.3906 C582.3281,180.8125 582.2969,181 582.1875,181.1563 C582.0156,181.375 581.75,181.5156 581.4844,181.5156 C581.2656,181.5156 581.0313,181.4063 580.8906,181.2656 C580.75,181.1406 580.7188,181.0156 580.6563,180.6094 C580.5625,180.2031 580.3906,179.9844 579.9063,179.7031 C579.4375,179.4531 578.8281,179.2969 578.25,179.2969 C576.5156,179.2969 575.2656,180.6094 575.2656,182.3906 L575.2656,183.4844 C575.2656,185.1875 576.5625,186.2813 578.6094,186.2813 C579.375,186.2813 580.0625,186.1563 580.4844,185.8906 C580.6719,185.7969 580.6719,185.7969 581.125,185.3125 C581.3125,185.125 581.5156,185.0469 581.7344,185.0469 C582.2031,185.0469 582.5938,185.4375 582.5938,185.8906 C582.5938,186.2813 582.2656,186.7344 581.6875,187.1406 C580.9375,187.6875 579.7813,187.9844 578.5625,187.9844 C575.6719,187.9844 573.5625,186.0938 573.5625,183.5156 L573.5625,182.3906 C573.5625,179.6719 575.5625,177.5938 578.1875,177.5938 C579.0625,177.5938 579.6563,177.7344 580.5938,178.1719 Z "/><text fill="#000000" font-family="sans-serif" font-size="12" lengthAdjust="spacingAndGlyphs" textLength="75" x="598.75" y="186.6543">UtilisateurIA</text><line style="stroke: #A80036; stroke-width: 1.5;" x1="530" x2="710" y1="198.5" y2="198.5"/><line style="stroke: #A80036; stroke-width: 1.5;" x1="530" x2="710" y1="206.5" y2="206.5"/><text fill="#000000" font-family="sans-serif" font-size="11" lengthAdjust="spacingAndGlyphs" textLength="170" x="535" y="220.7104">Message: repondre(Message)</text><!--class UtilisateurHumain--><rect fill="#FEFECE" filter="url(#fpmgj75)" height="112.0234" style="stroke: #A80036; stroke-width: 1.5;" width="143" x="528.5" y="300"/><ellipse cx="543.5" cy="316" fill="#ADD1B2" rx="11" ry="11" style="stroke: #A80036; stroke-width: 1.0;"/><path d="M545.8438,311.6719 L546.0156,311.75 C546.2344,311.4375 546.4375,311.3438 546.7344,311.3438 C547.0313,311.3438 547.3125,311.4844 547.4688,311.75 C547.5625,311.9063 547.5781,312.0313 547.5781,312.4688 L547.5781,313.8906 C547.5781,314.3125 547.5469,314.5 547.4375,314.6563 C547.2656,314.875 547,315.0156 546.7344,315.0156 C546.5156,315.0156 546.2813,314.9063 546.1406,314.7656 C546,314.6406 545.9688,314.5156 545.9063,314.1094 C545.8125,313.7031 545.6406,313.4844 545.1563,313.2031 C544.6875,312.9531 544.0781,312.7969 543.5,312.7969 C541.7656,312.7969 540.5156,314.1094 540.5156,315.8906 L540.5156,316.9844 C540.5156,318.6875 541.8125,319.7813 543.8594,319.7813 C544.625,319.7813 545.3125,319.6563 545.7344,319.3906 C545.9219,319.2969 545.9219,319.2969 546.375,318.8125 C546.5625,318.625 546.7656,318.5469 546.9844,318.5469 C547.4531,318.5469 547.8438,318.9375 547.8438,319.3906 C547.8438,319.7813 547.5156,320.2344 546.9375,320.6406 C546.1875,321.1875 545.0313,321.4844 543.8125,321.4844 C540.9219,321.4844 538.8125,319.5938 538.8125,317.0156 L538.8125,315.8906 C538.8125,313.1719 540.8125,311.0938 543.4375,311.0938 C544.3125,311.0938 544.9063,311.2344 545.8438,311.6719 Z "/><text fill="#000000" font-family="sans-serif" font-size="12" lengthAdjust="spacingAndGlyphs" textLength="111" x="557.5" y="320.1543">UtilisateurHumain</text><line style="stroke: #A80036; stroke-width: 1.5;" x1="529.5" x2="670.5" y1="332" y2="332"/><text fill="#000000" font-family="sans-serif" font-size="11" lengthAdjust="spacingAndGlyphs" textLength="72" x="534.5" y="346.2104">motDePasse</text><text fill="#000000" font-family="sans-serif" font-size="11" lengthAdjust="spacingAndGlyphs" textLength="66" x="534.5" y="359.0151">adresseMel</text><text fill="#000000" font-family="sans-serif" font-size="11" lengthAdjust="spacingAndGlyphs" textLength="84" x="534.5" y="371.8198">dateNaissance</text><text fill="#000000" font-family="sans-serif" font-size="11" lengthAdjust="spacingAndGlyphs" textLength="119" x="534.5" y="384.6245">motDePasseParental</text><text fill="#000000" font-family="sans-serif" font-size="11" lengthAdjust="spacingAndGlyphs" textLength="32" x="534.5" y="397.4292">photo</text><line style="stroke: #A80036; stroke-width: 1.5;" x1="529.5" x2="670.5" y1="404.0234" y2="404.0234"/><!--class Session--><rect fill="#FEFECE" filter="url(#fpmgj75)" height="60.8047" style="stroke: #A80036; stroke-width: 1.5;" width="81" x="454.5" y="20.5"/><ellipse cx="469.5" cy="36.5" fill="#ADD1B2" rx="11" ry="11" style="stroke: #A80036; stroke-width: 1.0;"/><path d="M471.8438,32.1719 L472.0156,32.25 C472.2344,31.9375 472.4375,31.8438 472.7344,31.8438 C473.0313,31.8438 473.3125,31.9844 473.4688,32.25 C473.5625,32.4063 473.5781,32.5313 473.5781,32.9688 L473.5781,34.3906 C473.5781,34.8125 473.5469,35 473.4375,35.1563 C473.2656,35.375 473,35.5156 472.7344,35.5156 C472.5156,35.5156 472.2813,35.4063 472.1406,35.2656 C472,35.1406 471.9688,35.0156 471.9063,34.6094 C471.8125,34.2031 471.6406,33.9844 471.1563,33.7031 C470.6875,33.4531 470.0781,33.2969 469.5,33.2969 C467.7656,33.2969 466.5156,34.6094 466.5156,36.3906 L466.5156,37.4844 C466.5156,39.1875 467.8125,40.2813 469.8594,40.2813 C470.625,40.2813 471.3125,40.1563 471.7344,39.8906 C471.9219,39.7969 471.9219,39.7969 472.375,39.3125 C472.5625,39.125 472.7656,39.0469 472.9844,39.0469 C473.4531,39.0469 473.8438,39.4375 473.8438,39.8906 C473.8438,40.2813 473.5156,40.7344 472.9375,41.1406 C472.1875,41.6875 471.0313,41.9844 469.8125,41.9844 C466.9219,41.9844 464.8125,40.0938 464.8125,37.5156 L464.8125,36.3906 C464.8125,33.6719 466.8125,31.5938 469.4375,31.5938 C470.3125,31.5938 470.9063,31.7344 471.8438,32.1719 Z "/><text fill="#000000" font-family="sans-serif" font-size="12" lengthAdjust="spacingAndGlyphs" textLength="49" x="483.5" y="40.6543">Session</text><line style="stroke: #A80036; stroke-width: 1.5;" x1="455.5" x2="534.5" y1="52.5" y2="52.5"/><text fill="#000000" font-family="sans-serif" font-size="11" lengthAdjust="spacingAndGlyphs" textLength="69" x="460.5" y="66.7104">socketClient</text><line style="stroke: #A80036; stroke-width: 1.5;" x1="455.5" x2="534.5" y1="73.3047" y2="73.3047"/><!--class Discussion--><rect fill="#FEFECE" filter="url(#fpmgj75)" height="48" style="stroke: #A80036; stroke-width: 1.5;" width="99" x="234.5" y="173"/><ellipse cx="249.5" cy="189" fill="#ADD1B2" rx="11" ry="11" style="stroke: #A80036; stroke-width: 1.0;"/><path d="M251.8438,184.6719 L252.0156,184.75 C252.2344,184.4375 252.4375,184.3438 252.7344,184.3438 C253.0313,184.3438 253.3125,184.4844 253.4688,184.75 C253.5625,184.9063 253.5781,185.0313 253.5781,185.4688 L253.5781,186.8906 C253.5781,187.3125 253.5469,187.5 253.4375,187.6563 C253.2656,187.875 253,188.0156 252.7344,188.0156 C252.5156,188.0156 252.2813,187.9063 252.1406,187.7656 C252,187.6406 251.9688,187.5156 251.9063,187.1094 C251.8125,186.7031 251.6406,186.4844 251.1563,186.2031 C250.6875,185.9531 250.0781,185.7969 249.5,185.7969 C247.7656,185.7969 246.5156,187.1094 246.5156,188.8906 L246.5156,189.9844 C246.5156,191.6875 247.8125,192.7813 249.8594,192.7813 C250.625,192.7813 251.3125,192.6563 251.7344,192.3906 C251.9219,192.2969 251.9219,192.2969 252.375,191.8125 C252.5625,191.625 252.7656,191.5469 252.9844,191.5469 C253.4531,191.5469 253.8438,191.9375 253.8438,192.3906 C253.8438,192.7813 253.5156,193.2344 252.9375,193.6406 C252.1875,194.1875 251.0313,194.4844 249.8125,194.4844 C246.9219,194.4844 244.8125,192.5938 244.8125,190.0156 L244.8125,188.8906 C244.8125,186.1719 246.8125,184.0938 249.4375,184.0938 C250.3125,184.0938 250.9063,184.2344 251.8438,184.6719 Z "/><text fill="#000000" font-family="sans-serif" font-size="12" lengthAdjust="spacingAndGlyphs" textLength="67" x="263.5" y="193.1543">Discussion</text><line style="stroke: #A80036; stroke-width: 1.5;" x1="235.5" x2="332.5" y1="205" y2="205"/><line style="stroke: #A80036; stroke-width: 1.5;" x1="235.5" x2="332.5" y1="213" y2="213"/><!--class Message--><rect fill="#FEFECE" filter="url(#fpmgj75)" height="73.6094" style="stroke: #A80036; stroke-width: 1.5;" width="88" x="223" y="580"/><ellipse cx="238" cy="596" fill="#ADD1B2" rx="11" ry="11" style="stroke: #A80036; stroke-width: 1.0;"/><path d="M240.3438,591.6719 L240.5156,591.75 C240.7344,591.4375 240.9375,591.3438 241.2344,591.3438 C241.5313,591.3438 241.8125,591.4844 241.9688,591.75 C242.0625,591.9063 242.0781,592.0313 242.0781,592.4688 L242.0781,593.8906 C242.0781,594.3125 242.0469,594.5 241.9375,594.6563 C241.7656,594.875 241.5,595.0156 241.2344,595.0156 C241.0156,595.0156 240.7813,594.9063 240.6406,594.7656 C240.5,594.6406 240.4688,594.5156 240.4063,594.1094 C240.3125,593.7031 240.1406,593.4844 239.6563,593.2031 C239.1875,592.9531 238.5781,592.7969 238,592.7969 C236.2656,592.7969 235.0156,594.1094 235.0156,595.8906 L235.0156,596.9844 C235.0156,598.6875 236.3125,599.7813 238.3594,599.7813 C239.125,599.7813 239.8125,599.6563 240.2344,599.3906 C240.4219,599.2969 240.4219,599.2969 240.875,598.8125 C241.0625,598.625 241.2656,598.5469 241.4844,598.5469 C241.9531,598.5469 242.3438,598.9375 242.3438,599.3906 C242.3438,599.7813 242.0156,600.2344 241.4375,600.6406 C240.6875,601.1875 239.5313,601.4844 238.3125,601.4844 C235.4219,601.4844 233.3125,599.5938 233.3125,597.0156 L233.3125,595.8906 C233.3125,593.1719 235.3125,591.0938 237.9375,591.0938 C238.8125,591.0938 239.4063,591.2344 240.3438,591.6719 Z "/><text fill="#000000" font-family="sans-serif" font-size="12" lengthAdjust="spacingAndGlyphs" textLength="56" x="252" y="600.1543">Message</text><line style="stroke: #A80036; stroke-width: 1.5;" x1="224" x2="310" y1="612" y2="612"/><text fill="#000000" font-family="sans-serif" font-size="11" lengthAdjust="spacingAndGlyphs" textLength="28" x="229" y="626.2104">texte</text><text fill="#000000" font-family="sans-serif" font-size="11" lengthAdjust="spacingAndGlyphs" textLength="25" x="229" y="639.0151">date</text><line style="stroke: #A80036; stroke-width: 1.5;" x1="224" x2="310" y1="645.6094" y2="645.6094"/><!--class DiscussionTexte--><rect fill="#FEFECE" filter="url(#fpmgj75)" height="60.8047" style="stroke: #A80036; stroke-width: 1.5;" width="176" x="6" y="325.5"/><ellipse cx="40.35" cy="341.5" fill="#ADD1B2" rx="11" ry="11" style="stroke: #A80036; stroke-width: 1.0;"/><path d="M42.6938,337.1719 L42.8656,337.25 C43.0844,336.9375 43.2875,336.8438 43.5844,336.8438 C43.8813,336.8438 44.1625,336.9844 44.3188,337.25 C44.4125,337.4063 44.4281,337.5313 44.4281,337.9688 L44.4281,339.3906 C44.4281,339.8125 44.3969,340 44.2875,340.1563 C44.1156,340.375 43.85,340.5156 43.5844,340.5156 C43.3656,340.5156 43.1313,340.4063 42.9906,340.2656 C42.85,340.1406 42.8188,340.0156 42.7563,339.6094 C42.6625,339.2031 42.4906,338.9844 42.0063,338.7031 C41.5375,338.4531 40.9281,338.2969 40.35,338.2969 C38.6156,338.2969 37.3656,339.6094 37.3656,341.3906 L37.3656,342.4844 C37.3656,344.1875 38.6625,345.2813 40.7094,345.2813 C41.475,345.2813 42.1625,345.1563 42.5844,344.8906 C42.7719,344.7969 42.7719,344.7969 43.225,344.3125 C43.4125,344.125 43.6156,344.0469 43.8344,344.0469 C44.3031,344.0469 44.6938,344.4375 44.6938,344.8906 C44.6938,345.2813 44.3656,345.7344 43.7875,346.1406 C43.0375,346.6875 41.8813,346.9844 40.6625,346.9844 C37.7719,346.9844 35.6625,345.0938 35.6625,342.5156 L35.6625,341.3906 C35.6625,338.6719 37.6625,336.5938 40.2875,336.5938 C41.1625,336.5938 41.7563,336.7344 42.6938,337.1719 Z "/><text fill="#000000" font-family="sans-serif" font-size="12" lengthAdjust="spacingAndGlyphs" textLength="101" x="58.65" y="345.6543">DiscussionTexte</text><line style="stroke: #A80036; stroke-width: 1.5;" x1="7" x2="181" y1="357.5" y2="357.5"/><line style="stroke: #A80036; stroke-width: 1.5;" x1="7" x2="181" y1="365.5" y2="365.5"/><text fill="#000000" font-family="sans-serif" font-size="11" lengthAdjust="spacingAndGlyphs" textLength="164" x="12" y="379.7104">void: addMessage(message)</text><!--class DiscussionAudio--><rect fill="#FEFECE" filter="url(#fpmgj75)" height="60.8047" style="stroke: #A80036; stroke-width: 1.5;" width="134" x="217" y="325.5"/><ellipse cx="232" cy="341.5" fill="#ADD1B2" rx="11" ry="11" style="stroke: #A80036; stroke-width: 1.0;"/><path d="M234.3438,337.1719 L234.5156,337.25 C234.7344,336.9375 234.9375,336.8438 235.2344,336.8438 C235.5313,336.8438 235.8125,336.9844 235.9688,337.25 C236.0625,337.4063 236.0781,337.5313 236.0781,337.9688 L236.0781,339.3906 C236.0781,339.8125 236.0469,340 235.9375,340.1563 C235.7656,340.375 235.5,340.5156 235.2344,340.5156 C235.0156,340.5156 234.7813,340.4063 234.6406,340.2656 C234.5,340.1406 234.4688,340.0156 234.4063,339.6094 C234.3125,339.2031 234.1406,338.9844 233.6563,338.7031 C233.1875,338.4531 232.5781,338.2969 232,338.2969 C230.2656,338.2969 229.0156,339.6094 229.0156,341.3906 L229.0156,342.4844 C229.0156,344.1875 230.3125,345.2813 232.3594,345.2813 C233.125,345.2813 233.8125,345.1563 234.2344,344.8906 C234.4219,344.7969 234.4219,344.7969 234.875,344.3125 C235.0625,344.125 235.2656,344.0469 235.4844,344.0469 C235.9531,344.0469 236.3438,344.4375 236.3438,344.8906 C236.3438,345.2813 236.0156,345.7344 235.4375,346.1406 C234.6875,346.6875 233.5313,346.9844 232.3125,346.9844 C229.4219,346.9844 227.3125,345.0938 227.3125,342.5156 L227.3125,341.3906 C227.3125,338.6719 229.3125,336.5938 231.9375,336.5938 C232.8125,336.5938 233.4063,336.7344 234.3438,337.1719 Z "/><text fill="#000000" font-family="sans-serif" font-size="12" lengthAdjust="spacingAndGlyphs" textLength="102" x="246" y="345.6543">DiscussionAudio</text><line style="stroke: #A80036; stroke-width: 1.5;" x1="218" x2="350" y1="357.5" y2="357.5"/><line style="stroke: #A80036; stroke-width: 1.5;" x1="218" x2="350" y1="365.5" y2="365.5"/><text fill="#000000" font-family="sans-serif" font-size="11" lengthAdjust="spacingAndGlyphs" textLength="79" x="223" y="379.7104">void: arreter()</text><!--class Serveur--><rect fill="#FEFECE" filter="url(#fpmgj75)" height="86.4141" style="stroke: #A80036; stroke-width: 1.5;" width="270" x="149" y="8"/><ellipse cx="255.75" cy="24" fill="#ADD1B2" rx="11" ry="11" style="stroke: #A80036; stroke-width: 1.0;"/><path d="M258.0938,19.6719 L258.2656,19.75 C258.4844,19.4375 258.6875,19.3438 258.9844,19.3438 C259.2813,19.3438 259.5625,19.4844 259.7188,19.75 C259.8125,19.9063 259.8281,20.0313 259.8281,20.4688 L259.8281,21.8906 C259.8281,22.3125 259.7969,22.5 259.6875,22.6563 C259.5156,22.875 259.25,23.0156 258.9844,23.0156 C258.7656,23.0156 258.5313,22.9063 258.3906,22.7656 C258.25,22.6406 258.2188,22.5156 258.1563,22.1094 C258.0625,21.7031 257.8906,21.4844 257.4063,21.2031 C256.9375,20.9531 256.3281,20.7969 255.75,20.7969 C254.0156,20.7969 252.7656,22.1094 252.7656,23.8906 L252.7656,24.9844 C252.7656,26.6875 254.0625,27.7813 256.1094,27.7813 C256.875,27.7813 257.5625,27.6563 257.9844,27.3906 C258.1719,27.2969 258.1719,27.2969 258.625,26.8125 C258.8125,26.625 259.0156,26.5469 259.2344,26.5469 C259.7031,26.5469 260.0938,26.9375 260.0938,27.3906 C260.0938,27.7813 259.7656,28.2344 259.1875,28.6406 C258.4375,29.1875 257.2813,29.4844 256.0625,29.4844 C253.1719,29.4844 251.0625,27.5938 251.0625,25.0156 L251.0625,23.8906 C251.0625,21.1719 253.0625,19.0938 255.6875,19.0938 C256.5625,19.0938 257.1563,19.2344 258.0938,19.6719 Z "/><text fill="#000000" font-family="sans-serif" font-size="12" lengthAdjust="spacingAndGlyphs" textLength="48" x="276.25" y="28.1543">Serveur</text><line style="stroke: #A80036; stroke-width: 1.5;" x1="150" x2="418" y1="40" y2="40"/><text fill="#000000" font-family="sans-serif" font-size="11" lengthAdjust="spacingAndGlyphs" textLength="82" x="155" y="54.2104">socketServeur</text><line style="stroke: #A80036; stroke-width: 1.5;" x1="150" x2="418" y1="60.8047" y2="60.8047"/><text fill="#000000" font-family="sans-serif" font-size="11" lengthAdjust="spacingAndGlyphs" textLength="175" x="155" y="75.0151">void: addUtilisateur(utilisateur)</text><text fill="#000000" font-family="sans-serif" font-size="11" lengthAdjust="spacingAndGlyphs" textLength="258" x="155" y="87.8198">Discussion: createDiscussion(listeUtilisateur)</text><path d="M600,425.586 C600,442.209 600,458.865 600,471.693 " fill="none" style="stroke: #A80036; stroke-width: 1.0;"/><polygon fill="#A80036" points="600,412.335,596,418.335,600,424.335,604,418.335,600,412.335" style="stroke: #A80036; stroke-width: 1.0;"/><path d="M611.553,539.962 C615.056,552.991 618.869,567.1687 622.242,579.714 " fill="none" style="stroke: #A80036; stroke-width: 1.0;"/><polygon fill="none" points="604.68,541.359,606.246,520.227,618.199,537.723,604.68,541.359" style="stroke: #A80036; stroke-width: 1.0;"/><path d="M560.973,534.154 C543.265,551.011 522.617,570.6689 505.994,586.4935 " fill="none" style="stroke: #A80036; stroke-width: 1.0;"/><polygon fill="none" points="556.29,528.947,575.602,520.227,565.943,539.087,556.29,528.947" style="stroke: #A80036; stroke-width: 1.0;"/><path d="M484.847,81.837 C479.002,99.015 471.474,121.138 464.604,141.328 " fill="none" style="stroke: #A80036; stroke-width: 1.0;"/><polygon fill="#A80036" points="460.321,153.915,466.0408,149.5237,464.1873,142.5549,458.4674,146.9462,460.321,153.915" style="stroke: #A80036; stroke-width: 1.0;"/><path d="M448.94,240.38 C454.494,320.431 466.468,493.025 472.038,573.3125 " fill="none" style="stroke: #A80036; stroke-width: 1.0;"/><polygon fill="#A80036" points="472.938,586.284,476.5131,580.0215,472.1074,574.3128,468.5323,580.5752,472.938,586.284" style="stroke: #A80036; stroke-width: 1.0;"/><path d="M514.404,197 C519.149,197 523.895,197 528.64,197 " fill="none" style="stroke: #A80036; stroke-width: 1.0;"/><polygon fill="none" points="514.258,204,494.258,197,514.258,190,514.258,204" style="stroke: #A80036; stroke-width: 1.0;"/><path d="M501.309,254.387 C515.807,269.167 531.422,285.086 545.858,299.803 " fill="none" style="stroke: #A80036; stroke-width: 1.0;"/><polygon fill="none" points="496.277,259.253,487.269,240.073,506.272,249.449,496.277,259.253" style="stroke: #A80036; stroke-width: 1.0;"/><path d="M240.178,234.211 C206.744,261.838 161.255,299.426 129.947,325.296 " fill="none" style="stroke: #A80036; stroke-width: 1.0;"/><polygon fill="none" points="236.088,228.51,255.965,221.166,245.006,239.302,236.088,228.51" style="stroke: #A80036; stroke-width: 1.0;"/><path d="M284,241.213 C284,267.938 284,301.552 284,325.296 " fill="none" style="stroke: #A80036; stroke-width: 1.0;"/><polygon fill="none" points="277,241.166,284,221.166,291,241.166,277,241.166" style="stroke: #A80036; stroke-width: 1.0;"/><path d="M333.676,197 C355.029,197 376.382,197 397.736,197 " fill="none" style="stroke: #A80036; stroke-width: 1.0;"/><path d="M121.21,397.737 C154.591,447.712 210.678,531.68 242.68,579.5906 " fill="none" style="stroke: #A80036; stroke-width: 1.0;"/><polygon fill="#A80036" points="113.845,386.711,113.8507,393.9221,120.5093,396.6903,120.5036,389.4792,113.845,386.711" style="stroke: #A80036; stroke-width: 1.0;"/><path d="M432.102,240.36 C417.452,283.922 393.063,353.475 368,412 C344.636,466.557 313.927,527.307 292.531,568.2097 " fill="none" style="stroke: #A80036; stroke-width: 1.0;"/><polygon fill="#A80036" points="286.482,579.7173,292.8142,576.2672,292.0649,569.0951,285.7327,572.5452,286.482,579.7173" style="stroke: #A80036; stroke-width: 1.0;"/><path d="M331.293,94.038 C352.493,112.882 377.442,135.059 398.649,153.91 " fill="none" style="stroke: #A80036; stroke-width: 1.0;"/><path d="M284,107.131 C284,129.967 284,155.202 284,172.928 " fill="none" style="stroke: #A80036; stroke-width: 1.0;"/><polygon fill="#A80036" points="284,94.038,280,100.038,284,106.038,288,100.038,284,94.038" style="stroke: #A80036; stroke-width: 1.0;"/></g></svg>