<?xml version="1.0" encoding="UTF-8" standalone="no"?><svg xmlns="http://www.w3.org/2000/svg" xmlns:xlink="http://www.w3.org/1999/xlink" contentScriptType="application/ecmascript" contentStyleType="text/css" height="504px" preserveAspectRatio="none" style="width:672px;height:504px;" version="1.1" viewBox="0 0 672 504" width="672px" zoomAndPan="magnify"><defs><filter height="300%" id="fp3uho7" width="300%" x="-1" y="-1"><feGaussianBlur result="blurOut" stdDeviation="2.0"/><feColorMatrix in="blurOut" result="blurOut2" type="matrix" values="0 0 0 0 0 0 0 0 0 0 0 0 0 0 0 0 0 0 .4 0"/><feOffset dx="4.0" dy="4.0" in="blurOut2" result="blurOut3"/><feBlend in="SourceGraphic" in2="blurOut3" mode="normal"/></filter></defs><g><!--class IFiltre--><rect fill="#FEFECE" filter="url(#fp3uho7)" height="48" style="stroke: #A80036; stroke-width: 1.5;" width="67" x="424" y="193"/><ellipse cx="439" cy="209" fill="#B4A7E5" rx="11" ry="11" style="stroke: #A80036; stroke-width: 1.0;"/><path d="M439.9531,205.7813 L439.9531,212.2969 L441.6719,212.2969 C442.125,212.2969 442.2656,212.3281 442.4375,212.4531 C442.6719,212.625 442.7813,212.875 442.7813,213.1563 C442.7813,213.7188 442.4219,214 441.6719,214 L436.5313,214 C436.125,214 435.9219,213.9531 435.7656,213.8281 C435.5469,213.6719 435.4063,213.4063 435.4063,213.1563 C435.4063,212.8594 435.5625,212.5781 435.8125,212.4219 C435.9688,212.3125 436.0938,212.2969 436.5313,212.2969 L438.25,212.2969 L438.25,205.7813 L436.5313,205.7813 C436.1094,205.7813 435.9219,205.75 435.7656,205.6406 C435.5469,205.4688 435.4063,205.2188 435.4063,204.9375 C435.4063,204.6563 435.5625,204.3594 435.8125,204.2031 C435.9688,204.1094 436.0938,204.0938 436.5313,204.0938 L441.6719,204.0938 C442.125,204.0938 442.2656,204.125 442.4375,204.2344 C442.6719,204.4063 442.7813,204.6719 442.7813,204.9375 C442.7813,205.2344 442.6406,205.5156 442.375,205.6719 C442.25,205.75 442.0625,205.7813 441.6719,205.7813 Z "/><text fill="#000000" font-family="sans-serif" font-size="12" font-style="italic" lengthAdjust="spacingAndGlyphs" textLength="35" x="453" y="213.1543">IFiltre</text><line style="stroke: #A80036; stroke-width: 1.5;" x1="425" x2="490" y1="225" y2="225"/><line style="stroke: #A80036; stroke-width: 1.5;" x1="425" x2="490" y1="233" y2="233"/><!--class FiltreMot--><rect fill="#FEFECE" filter="url(#fp3uho7)" height="60.8047" style="stroke: #A80036; stroke-width: 1.5;" width="86" x="414.5" y="301"/><ellipse cx="429.5" cy="317" fill="#ADD1B2" rx="11" ry="11" style="stroke: #A80036; stroke-width: 1.0;"/><path d="M431.8438,312.6719 L432.0156,312.75 C432.2344,312.4375 432.4375,312.3438 432.7344,312.3438 C433.0313,312.3438 433.3125,312.4844 433.4688,312.75 C433.5625,312.9063 433.5781,313.0313 433.5781,313.4688 L433.5781,314.8906 C433.5781,315.3125 433.5469,315.5 433.4375,315.6563 C433.2656,315.875 433,316.0156 432.7344,316.0156 C432.5156,316.0156 432.2813,315.9063 432.1406,315.7656 C432,315.6406 431.9688,315.5156 431.9063,315.1094 C431.8125,314.7031 431.6406,314.4844 431.1563,314.2031 C430.6875,313.9531 430.0781,313.7969 429.5,313.7969 C427.7656,313.7969 426.5156,315.1094 426.5156,316.8906 L426.5156,317.9844 C426.5156,319.6875 427.8125,320.7813 429.8594,320.7813 C430.625,320.7813 431.3125,320.6563 431.7344,320.3906 C431.9219,320.2969 431.9219,320.2969 432.375,319.8125 C432.5625,319.625 432.7656,319.5469 432.9844,319.5469 C433.4531,319.5469 433.8438,319.9375 433.8438,320.3906 C433.8438,320.7813 433.5156,321.2344 432.9375,321.6406 C432.1875,322.1875 431.0313,322.4844 429.8125,322.4844 C426.9219,322.4844 424.8125,320.5938 424.8125,318.0156 L424.8125,316.8906 C424.8125,314.1719 426.8125,312.0938 429.4375,312.0938 C430.3125,312.0938 430.9063,312.2344 431.8438,312.6719 Z "/><text fill="#000000" font-family="sans-serif" font-size="12" lengthAdjust="spacingAndGlyphs" textLength="54" x="443.5" y="321.1543">FiltreMot</text><line style="stroke: #A80036; stroke-width: 1.5;" x1="415.5" x2="499.5" y1="333" y2="333"/><text fill="#000000" font-family="sans-serif" font-size="11" lengthAdjust="spacingAndGlyphs" textLength="22" x="420.5" y="347.2104">mot</text><line style="stroke: #A80036; stroke-width: 1.5;" x1="415.5" x2="499.5" y1="353.8047" y2="353.8047"/><!--class FiltreUtilisateur--><rect fill="#FEFECE" filter="url(#fp3uho7)" height="48" style="stroke: #A80036; stroke-width: 1.5;" width="127" x="536" y="307.5"/><ellipse cx="551" cy="323.5" fill="#ADD1B2" rx="11" ry="11" style="stroke: #A80036; stroke-width: 1.0;"/><path d="M553.3438,319.1719 L553.5156,319.25 C553.7344,318.9375 553.9375,318.8438 554.2344,318.8438 C554.5313,318.8438 554.8125,318.9844 554.9688,319.25 C555.0625,319.4063 555.0781,319.5313 555.0781,319.9688 L555.0781,321.3906 C555.0781,321.8125 555.0469,322 554.9375,322.1563 C554.7656,322.375 554.5,322.5156 554.2344,322.5156 C554.0156,322.5156 553.7813,322.4063 553.6406,322.2656 C553.5,322.1406 553.4688,322.0156 553.4063,321.6094 C553.3125,321.2031 553.1406,320.9844 552.6563,320.7031 C552.1875,320.4531 551.5781,320.2969 551,320.2969 C549.2656,320.2969 548.0156,321.6094 548.0156,323.3906 L548.0156,324.4844 C548.0156,326.1875 549.3125,327.2813 551.3594,327.2813 C552.125,327.2813 552.8125,327.1563 553.2344,326.8906 C553.4219,326.7969 553.4219,326.7969 553.875,326.3125 C554.0625,326.125 554.2656,326.0469 554.4844,326.0469 C554.9531,326.0469 555.3438,326.4375 555.3438,326.8906 C555.3438,327.2813 555.0156,327.7344 554.4375,328.1406 C553.6875,328.6875 552.5313,328.9844 551.3125,328.9844 C548.4219,328.9844 546.3125,327.0938 546.3125,324.5156 L546.3125,323.3906 C546.3125,320.6719 548.3125,318.5938 550.9375,318.5938 C551.8125,318.5938 552.4063,318.7344 553.3438,319.1719 Z "/><text fill="#000000" font-family="sans-serif" font-size="12" lengthAdjust="spacingAndGlyphs" textLength="95" x="565" y="327.6543">FiltreUtilisateur</text><line style="stroke: #A80036; stroke-width: 1.5;" x1="537" x2="662" y1="339.5" y2="339.5"/><line style="stroke: #A80036; stroke-width: 1.5;" x1="537" x2="662" y1="347.5" y2="347.5"/><!--class Utilisateur--><rect fill="#FEFECE" filter="url(#fp3uho7)" height="124.8281" style="stroke: #A80036; stroke-width: 1.5;" width="96" x="367.5" y="8"/><ellipse cx="382.5" cy="24" fill="#ADD1B2" rx="11" ry="11" style="stroke: #A80036; stroke-width: 1.0;"/><path d="M384.8438,19.6719 L385.0156,19.75 C385.2344,19.4375 385.4375,19.3438 385.7344,19.3438 C386.0313,19.3438 386.3125,19.4844 386.4688,19.75 C386.5625,19.9063 386.5781,20.0313 386.5781,20.4688 L386.5781,21.8906 C386.5781,22.3125 386.5469,22.5 386.4375,22.6563 C386.2656,22.875 386,23.0156 385.7344,23.0156 C385.5156,23.0156 385.2813,22.9063 385.1406,22.7656 C385,22.6406 384.9688,22.5156 384.9063,22.1094 C384.8125,21.7031 384.6406,21.4844 384.1563,21.2031 C383.6875,20.9531 383.0781,20.7969 382.5,20.7969 C380.7656,20.7969 379.5156,22.1094 379.5156,23.8906 L379.5156,24.9844 C379.5156,26.6875 380.8125,27.7813 382.8594,27.7813 C383.625,27.7813 384.3125,27.6563 384.7344,27.3906 C384.9219,27.2969 384.9219,27.2969 385.375,26.8125 C385.5625,26.625 385.7656,26.5469 385.9844,26.5469 C386.4531,26.5469 386.8438,26.9375 386.8438,27.3906 C386.8438,27.7813 386.5156,28.2344 385.9375,28.6406 C385.1875,29.1875 384.0313,29.4844 382.8125,29.4844 C379.9219,29.4844 377.8125,27.5938 377.8125,25.0156 L377.8125,23.8906 C377.8125,21.1719 379.8125,19.0938 382.4375,19.0938 C383.3125,19.0938 383.9063,19.2344 384.8438,19.6719 Z "/><text fill="#000000" font-family="sans-serif" font-size="12" lengthAdjust="spacingAndGlyphs" textLength="64" x="396.5" y="28.1543">Utilisateur</text><line style="stroke: #A80036; stroke-width: 1.5;" x1="368.5" x2="462.5" y1="40" y2="40"/><text fill="#000000" font-family="sans-serif" font-size="11" lengthAdjust="spacingAndGlyphs" textLength="73" x="373.5" y="54.2104">pseudonyme</text><text fill="#000000" font-family="sans-serif" font-size="11" lengthAdjust="spacingAndGlyphs" textLength="25" x="373.5" y="67.0151">nom</text><text fill="#000000" font-family="sans-serif" font-size="11" lengthAdjust="spacingAndGlyphs" textLength="44" x="373.5" y="79.8198">prenom</text><text fill="#000000" font-family="sans-serif" font-size="11" lengthAdjust="spacingAndGlyphs" textLength="66" x="373.5" y="92.6245">adresseMel</text><text fill="#000000" font-family="sans-serif" font-size="11" lengthAdjust="spacingAndGlyphs" textLength="84" x="373.5" y="105.4292">dateNaissance</text><text fill="#000000" font-family="sans-serif" font-size="11" lengthAdjust="spacingAndGlyphs" textLength="32" x="373.5" y="118.2339">photo</text><line style="stroke: #A80036; stroke-width: 1.5;" x1="368.5" x2="462.5" y1="124.8281" y2="124.8281"/><!--class Session--><rect fill="#FEFECE" filter="url(#fp3uho7)" height="73.6094" style="stroke: #A80036; stroke-width: 1.5;" width="94" x="498.5" y="33.5"/><ellipse cx="519.35" cy="49.5" fill="#ADD1B2" rx="11" ry="11" style="stroke: #A80036; stroke-width: 1.0;"/><path d="M521.6938,45.1719 L521.8656,45.25 C522.0844,44.9375 522.2875,44.8438 522.5844,44.8438 C522.8813,44.8438 523.1625,44.9844 523.3188,45.25 C523.4125,45.4063 523.4281,45.5313 523.4281,45.9688 L523.4281,47.3906 C523.4281,47.8125 523.3969,48 523.2875,48.1563 C523.1156,48.375 522.85,48.5156 522.5844,48.5156 C522.3656,48.5156 522.1313,48.4063 521.9906,48.2656 C521.85,48.1406 521.8188,48.0156 521.7563,47.6094 C521.6625,47.2031 521.4906,46.9844 521.0063,46.7031 C520.5375,46.4531 519.9281,46.2969 519.35,46.2969 C517.6156,46.2969 516.3656,47.6094 516.3656,49.3906 L516.3656,50.4844 C516.3656,52.1875 517.6625,53.2813 519.7094,53.2813 C520.475,53.2813 521.1625,53.1563 521.5844,52.8906 C521.7719,52.7969 521.7719,52.7969 522.225,52.3125 C522.4125,52.125 522.6156,52.0469 522.8344,52.0469 C523.3031,52.0469 523.6938,52.4375 523.6938,52.8906 C523.6938,53.2813 523.3656,53.7344 522.7875,54.1406 C522.0375,54.6875 520.8813,54.9844 519.6625,54.9844 C516.7719,54.9844 514.6625,53.0938 514.6625,50.5156 L514.6625,49.3906 C514.6625,46.6719 516.6625,44.5938 519.2875,44.5938 C520.1625,44.5938 520.7563,44.7344 521.6938,45.1719 Z "/><text fill="#000000" font-family="sans-serif" font-size="12" lengthAdjust="spacingAndGlyphs" textLength="49" x="534.65" y="53.6543">Session</text><line style="stroke: #A80036; stroke-width: 1.5;" x1="499.5" x2="591.5" y1="65.5" y2="65.5"/><text fill="#000000" font-family="sans-serif" font-size="11" lengthAdjust="spacingAndGlyphs" textLength="69" x="504.5" y="79.7104">socketClient</text><text fill="#000000" font-family="sans-serif" font-size="11" lengthAdjust="spacingAndGlyphs" textLength="82" x="504.5" y="92.5151">socketServeur</text><line style="stroke: #A80036; stroke-width: 1.5;" x1="499.5" x2="591.5" y1="99.1094" y2="99.1094"/><!--class Discussion--><rect fill="#FEFECE" filter="url(#fp3uho7)" height="48" style="stroke: #A80036; stroke-width: 1.5;" width="99" x="192" y="46.5"/><ellipse cx="207" cy="62.5" fill="#ADD1B2" rx="11" ry="11" style="stroke: #A80036; stroke-width: 1.0;"/><path d="M209.3438,58.1719 L209.5156,58.25 C209.7344,57.9375 209.9375,57.8438 210.2344,57.8438 C210.5313,57.8438 210.8125,57.9844 210.9688,58.25 C211.0625,58.4063 211.0781,58.5313 211.0781,58.9688 L211.0781,60.3906 C211.0781,60.8125 211.0469,61 210.9375,61.1563 C210.7656,61.375 210.5,61.5156 210.2344,61.5156 C210.0156,61.5156 209.7813,61.4063 209.6406,61.2656 C209.5,61.1406 209.4688,61.0156 209.4063,60.6094 C209.3125,60.2031 209.1406,59.9844 208.6563,59.7031 C208.1875,59.4531 207.5781,59.2969 207,59.2969 C205.2656,59.2969 204.0156,60.6094 204.0156,62.3906 L204.0156,63.4844 C204.0156,65.1875 205.3125,66.2813 207.3594,66.2813 C208.125,66.2813 208.8125,66.1563 209.2344,65.8906 C209.4219,65.7969 209.4219,65.7969 209.875,65.3125 C210.0625,65.125 210.2656,65.0469 210.4844,65.0469 C210.9531,65.0469 211.3438,65.4375 211.3438,65.8906 C211.3438,66.2813 211.0156,66.7344 210.4375,67.1406 C209.6875,67.6875 208.5313,67.9844 207.3125,67.9844 C204.4219,67.9844 202.3125,66.0938 202.3125,63.5156 L202.3125,62.3906 C202.3125,59.6719 204.3125,57.5938 206.9375,57.5938 C207.8125,57.5938 208.4063,57.7344 209.3438,58.1719 Z "/><text fill="#000000" font-family="sans-serif" font-size="12" lengthAdjust="spacingAndGlyphs" textLength="67" x="221" y="66.6543">Discussion</text><line style="stroke: #A80036; stroke-width: 1.5;" x1="193" x2="290" y1="78.5" y2="78.5"/><line style="stroke: #A80036; stroke-width: 1.5;" x1="193" x2="290" y1="86.5" y2="86.5"/><!--class Message--><rect fill="#FEFECE" filter="url(#fp3uho7)" height="73.6094" style="stroke: #A80036; stroke-width: 1.5;" width="88" x="227.5" y="422"/><ellipse cx="242.5" cy="438" fill="#ADD1B2" rx="11" ry="11" style="stroke: #A80036; stroke-width: 1.0;"/><path d="M244.8438,433.6719 L245.0156,433.75 C245.2344,433.4375 245.4375,433.3438 245.7344,433.3438 C246.0313,433.3438 246.3125,433.4844 246.4688,433.75 C246.5625,433.9063 246.5781,434.0313 246.5781,434.4688 L246.5781,435.8906 C246.5781,436.3125 246.5469,436.5 246.4375,436.6563 C246.2656,436.875 246,437.0156 245.7344,437.0156 C245.5156,437.0156 245.2813,436.9063 245.1406,436.7656 C245,436.6406 244.9688,436.5156 244.9063,436.1094 C244.8125,435.7031 244.6406,435.4844 244.1563,435.2031 C243.6875,434.9531 243.0781,434.7969 242.5,434.7969 C240.7656,434.7969 239.5156,436.1094 239.5156,437.8906 L239.5156,438.9844 C239.5156,440.6875 240.8125,441.7813 242.8594,441.7813 C243.625,441.7813 244.3125,441.6563 244.7344,441.3906 C244.9219,441.2969 244.9219,441.2969 245.375,440.8125 C245.5625,440.625 245.7656,440.5469 245.9844,440.5469 C246.4531,440.5469 246.8438,440.9375 246.8438,441.3906 C246.8438,441.7813 246.5156,442.2344 245.9375,442.6406 C245.1875,443.1875 244.0313,443.4844 242.8125,443.4844 C239.9219,443.4844 237.8125,441.5938 237.8125,439.0156 L237.8125,437.8906 C237.8125,435.1719 239.8125,433.0938 242.4375,433.0938 C243.3125,433.0938 243.9063,433.2344 244.8438,433.6719 Z "/><text fill="#000000" font-family="sans-serif" font-size="12" lengthAdjust="spacingAndGlyphs" textLength="56" x="256.5" y="442.1543">Message</text><line style="stroke: #A80036; stroke-width: 1.5;" x1="228.5" x2="314.5" y1="454" y2="454"/><text fill="#000000" font-family="sans-serif" font-size="11" lengthAdjust="spacingAndGlyphs" textLength="28" x="233.5" y="468.2104">texte</text><text fill="#000000" font-family="sans-serif" font-size="11" lengthAdjust="spacingAndGlyphs" textLength="25" x="233.5" y="481.0151">date</text><line style="stroke: #A80036; stroke-width: 1.5;" x1="228.5" x2="314.5" y1="487.6094" y2="487.6094"/><!--class DiscussionTexte--><rect fill="#FEFECE" filter="url(#fp3uho7)" height="48" style="stroke: #A80036; stroke-width: 1.5;" width="133" x="6" y="193"/><ellipse cx="21" cy="209" fill="#ADD1B2" rx="11" ry="11" style="stroke: #A80036; stroke-width: 1.0;"/><path d="M23.3438,204.6719 L23.5156,204.75 C23.7344,204.4375 23.9375,204.3438 24.2344,204.3438 C24.5313,204.3438 24.8125,204.4844 24.9688,204.75 C25.0625,204.9063 25.0781,205.0313 25.0781,205.4688 L25.0781,206.8906 C25.0781,207.3125 25.0469,207.5 24.9375,207.6563 C24.7656,207.875 24.5,208.0156 24.2344,208.0156 C24.0156,208.0156 23.7813,207.9063 23.6406,207.7656 C23.5,207.6406 23.4688,207.5156 23.4063,207.1094 C23.3125,206.7031 23.1406,206.4844 22.6563,206.2031 C22.1875,205.9531 21.5781,205.7969 21,205.7969 C19.2656,205.7969 18.0156,207.1094 18.0156,208.8906 L18.0156,209.9844 C18.0156,211.6875 19.3125,212.7813 21.3594,212.7813 C22.125,212.7813 22.8125,212.6563 23.2344,212.3906 C23.4219,212.2969 23.4219,212.2969 23.875,211.8125 C24.0625,211.625 24.2656,211.5469 24.4844,211.5469 C24.9531,211.5469 25.3438,211.9375 25.3438,212.3906 C25.3438,212.7813 25.0156,213.2344 24.4375,213.6406 C23.6875,214.1875 22.5313,214.4844 21.3125,214.4844 C18.4219,214.4844 16.3125,212.5938 16.3125,210.0156 L16.3125,208.8906 C16.3125,206.1719 18.3125,204.0938 20.9375,204.0938 C21.8125,204.0938 22.4063,204.2344 23.3438,204.6719 Z "/><text fill="#000000" font-family="sans-serif" font-size="12" lengthAdjust="spacingAndGlyphs" textLength="101" x="35" y="213.1543">DiscussionTexte</text><line style="stroke: #A80036; stroke-width: 1.5;" x1="7" x2="138" y1="225" y2="225"/><line style="stroke: #A80036; stroke-width: 1.5;" x1="7" x2="138" y1="233" y2="233"/><!--class DiscussionAudio--><rect fill="#FEFECE" filter="url(#fp3uho7)" height="48" style="stroke: #A80036; stroke-width: 1.5;" width="134" x="174.5" y="193"/><ellipse cx="189.5" cy="209" fill="#ADD1B2" rx="11" ry="11" style="stroke: #A80036; stroke-width: 1.0;"/><path d="M191.8438,204.6719 L192.0156,204.75 C192.2344,204.4375 192.4375,204.3438 192.7344,204.3438 C193.0313,204.3438 193.3125,204.4844 193.4688,204.75 C193.5625,204.9063 193.5781,205.0313 193.5781,205.4688 L193.5781,206.8906 C193.5781,207.3125 193.5469,207.5 193.4375,207.6563 C193.2656,207.875 193,208.0156 192.7344,208.0156 C192.5156,208.0156 192.2813,207.9063 192.1406,207.7656 C192,207.6406 191.9688,207.5156 191.9063,207.1094 C191.8125,206.7031 191.6406,206.4844 191.1563,206.2031 C190.6875,205.9531 190.0781,205.7969 189.5,205.7969 C187.7656,205.7969 186.5156,207.1094 186.5156,208.8906 L186.5156,209.9844 C186.5156,211.6875 187.8125,212.7813 189.8594,212.7813 C190.625,212.7813 191.3125,212.6563 191.7344,212.3906 C191.9219,212.2969 191.9219,212.2969 192.375,211.8125 C192.5625,211.625 192.7656,211.5469 192.9844,211.5469 C193.4531,211.5469 193.8438,211.9375 193.8438,212.3906 C193.8438,212.7813 193.5156,213.2344 192.9375,213.6406 C192.1875,214.1875 191.0313,214.4844 189.8125,214.4844 C186.9219,214.4844 184.8125,212.5938 184.8125,210.0156 L184.8125,208.8906 C184.8125,206.1719 186.8125,204.0938 189.4375,204.0938 C190.3125,204.0938 190.9063,204.2344 191.8438,204.6719 Z "/><text fill="#000000" font-family="sans-serif" font-size="12" lengthAdjust="spacingAndGlyphs" textLength="102" x="203.5" y="213.1543">DiscussionAudio</text><line style="stroke: #A80036; stroke-width: 1.5;" x1="175.5" x2="307.5" y1="225" y2="225"/><line style="stroke: #A80036; stroke-width: 1.5;" x1="175.5" x2="307.5" y1="233" y2="233"/><path d="M437.064,145.691 C442.062,162.886 447.017,179.934 450.796,192.936 " fill="none" style="stroke: #A80036; stroke-width: 1.0;"/><polygon fill="#A80036" points="433.434,133.2,431.267,140.0778,436.7824,144.7234,438.9493,137.8456,433.434,133.2" style="stroke: #A80036; stroke-width: 1.0;"/><path d="M457.5,261.109 C457.5,274.312 457.5,288.537 457.5,300.65 " fill="none" style="stroke: #A80036; stroke-width: 1.0;"/><polygon fill="none" points="450.5,261.038,457.5,241.038,464.5,261.037,450.5,261.038" style="stroke: #A80036; stroke-width: 1.0;"/><path d="M502.295,253.489 C524.57,271.136 550.847,291.954 570.46,307.493 " fill="none" style="stroke: #A80036; stroke-width: 1.0;"/><polygon fill="none" points="497.908,258.944,486.578,241.038,506.602,247.971,497.908,258.944" style="stroke: #A80036; stroke-width: 1.0;"/><path d="M476.946,70.5 C484.042,70.5 491.138,70.5 498.234,70.5 " fill="none" style="stroke: #A80036; stroke-width: 1.0;"/><polygon fill="#A80036" points="463.742,70.5,469.742,74.5,475.742,70.5,469.742,66.5,463.742,70.5" style="stroke: #A80036; stroke-width: 1.0;"/><path d="M463.642,132.696 C478.322,151.805 494.321,173.095 508.5,193 C533.06,227.477 559.61,268.003 577.656,296.085 " fill="none" style="stroke: #A80036; stroke-width: 1.0;"/><polygon fill="#A80036" points="584.839,307.305,584.9724,300.0951,578.3684,297.199,578.235,304.4088,584.839,307.305" style="stroke: #A80036; stroke-width: 1.0;"/><path d="M199.102,107.752 C167.902,134.428 126.417,169.9 99.5854,192.841 " fill="none" style="stroke: #A80036; stroke-width: 1.0;"/><polygon fill="none" points="194.597,102.393,214.347,94.716,203.695,113.034,194.597,102.393" style="stroke: #A80036; stroke-width: 1.0;"/><path d="M241.5,114.913 C241.5,140.516 241.5,171.899 241.5,192.841 " fill="none" style="stroke: #A80036; stroke-width: 1.0;"/><polygon fill="none" points="234.5,114.716,241.5,94.716,248.5,114.716,234.5,114.716" style="stroke: #A80036; stroke-width: 1.0;"/><path d="M291.117,70.5 C316.544,70.5 341.972,70.5 367.399,70.5 " fill="none" style="stroke: #A80036; stroke-width: 1.0;"/><path d="M99.9297,251.081 C137.083,295.889 203.16,375.58 241.565,421.8971 " fill="none" style="stroke: #A80036; stroke-width: 1.0;"/><polygon fill="#A80036" points="91.581,241.012,92.3319,248.1839,99.2409,250.2492,98.49,243.0773,91.581,241.012" style="stroke: #A80036; stroke-width: 1.0;"/><path d="M392.524,133.169 C363.931,209.913 315.695,339.379 289.589,409.4494 " fill="none" style="stroke: #A80036; stroke-width: 1.0;"/><polygon fill="#A80036" points="284.981,421.8158,290.824,417.5898,289.1704,410.5709,283.3274,414.7969,284.981,421.8158" style="stroke: #A80036; stroke-width: 1.0;"/></g></svg>