<?xml version="1.0" encoding="UTF-8" standalone="no"?><svg xmlns="http://www.w3.org/2000/svg" xmlns:xlink="http://www.w3.org/1999/xlink" contentScriptType="application/ecmascript" contentStyleType="text/css" height="637px" preserveAspectRatio="none" style="width:637px;height:637px;" version="1.1" viewBox="0 0 637 637" width="637px" zoomAndPan="magnify"><defs><filter height="300%" id="fu86f4n" width="300%" x="-1" y="-1"><feGaussianBlur result="blurOut" stdDeviation="2.0"/><feColorMatrix in="blurOut" result="blurOut2" type="matrix" values="0 0 0 0 0 0 0 0 0 0 0 0 0 0 0 0 0 0 .4 0"/><feOffset dx="4.0" dy="4.0" in="blurOut2" result="blurOut3"/><feBlend in="SourceGraphic" in2="blurOut3" mode="normal"/></filter></defs><g><!--class IFiltre--><rect fill="#FEFECE" filter="url(#fu86f4n)" height="48" style="stroke: #A80036; stroke-width: 1.5;" width="67" x="524" y="447"/><ellipse cx="539" cy="463" fill="#B4A7E5" rx="11" ry="11" style="stroke: #A80036; stroke-width: 1.0;"/><path d="M539.9531,459.7813 L539.9531,466.2969 L541.6719,466.2969 C542.125,466.2969 542.2656,466.3281 542.4375,466.4531 C542.6719,466.625 542.7813,466.875 542.7813,467.1563 C542.7813,467.7188 542.4219,468 541.6719,468 L536.5313,468 C536.125,468 535.9219,467.9531 535.7656,467.8281 C535.5469,467.6719 535.4063,467.4063 535.4063,467.1563 C535.4063,466.8594 535.5625,466.5781 535.8125,466.4219 C535.9688,466.3125 536.0938,466.2969 536.5313,466.2969 L538.25,466.2969 L538.25,459.7813 L536.5313,459.7813 C536.1094,459.7813 535.9219,459.75 535.7656,459.6406 C535.5469,459.4688 535.4063,459.2188 535.4063,458.9375 C535.4063,458.6563 535.5625,458.3594 535.8125,458.2031 C535.9688,458.1094 536.0938,458.0938 536.5313,458.0938 L541.6719,458.0938 C542.125,458.0938 542.2656,458.125 542.4375,458.2344 C542.6719,458.4063 542.7813,458.6719 542.7813,458.9375 C542.7813,459.2344 542.6406,459.5156 542.375,459.6719 C542.25,459.75 542.0625,459.7813 541.6719,459.7813 Z "/><text fill="#000000" font-family="sans-serif" font-size="12" font-style="italic" lengthAdjust="spacingAndGlyphs" textLength="35" x="553" y="467.1543">IFiltre</text><line style="stroke: #A80036; stroke-width: 1.5;" x1="525" x2="590" y1="479" y2="479"/><line style="stroke: #A80036; stroke-width: 1.5;" x1="525" x2="590" y1="487" y2="487"/><!--class FiltreMots--><rect fill="#FEFECE" filter="url(#fu86f4n)" height="60.8047" style="stroke: #A80036; stroke-width: 1.5;" width="93" x="535" y="561.5"/><ellipse cx="550" cy="577.5" fill="#ADD1B2" rx="11" ry="11" style="stroke: #A80036; stroke-width: 1.0;"/><path d="M552.3438,573.1719 L552.5156,573.25 C552.7344,572.9375 552.9375,572.8438 553.2344,572.8438 C553.5313,572.8438 553.8125,572.9844 553.9688,573.25 C554.0625,573.4063 554.0781,573.5313 554.0781,573.9688 L554.0781,575.3906 C554.0781,575.8125 554.0469,576 553.9375,576.1563 C553.7656,576.375 553.5,576.5156 553.2344,576.5156 C553.0156,576.5156 552.7813,576.4063 552.6406,576.2656 C552.5,576.1406 552.4688,576.0156 552.4063,575.6094 C552.3125,575.2031 552.1406,574.9844 551.6563,574.7031 C551.1875,574.4531 550.5781,574.2969 550,574.2969 C548.2656,574.2969 547.0156,575.6094 547.0156,577.3906 L547.0156,578.4844 C547.0156,580.1875 548.3125,581.2813 550.3594,581.2813 C551.125,581.2813 551.8125,581.1563 552.2344,580.8906 C552.4219,580.7969 552.4219,580.7969 552.875,580.3125 C553.0625,580.125 553.2656,580.0469 553.4844,580.0469 C553.9531,580.0469 554.3438,580.4375 554.3438,580.8906 C554.3438,581.2813 554.0156,581.7344 553.4375,582.1406 C552.6875,582.6875 551.5313,582.9844 550.3125,582.9844 C547.4219,582.9844 545.3125,581.0938 545.3125,578.5156 L545.3125,577.3906 C545.3125,574.6719 547.3125,572.5938 549.9375,572.5938 C550.8125,572.5938 551.4063,572.7344 552.3438,573.1719 Z "/><text fill="#000000" font-family="sans-serif" font-size="12" lengthAdjust="spacingAndGlyphs" textLength="61" x="564" y="581.6543">FiltreMots</text><line style="stroke: #A80036; stroke-width: 1.5;" x1="536" x2="627" y1="593.5" y2="593.5"/><text fill="#000000" font-family="sans-serif" font-size="11" lengthAdjust="spacingAndGlyphs" textLength="22" x="541" y="607.7104">mot</text><line style="stroke: #A80036; stroke-width: 1.5;" x1="536" x2="627" y1="614.3047" y2="614.3047"/><!--class FiltreUtilisateurs--><rect fill="#FEFECE" filter="url(#fu86f4n)" height="48" style="stroke: #A80036; stroke-width: 1.5;" width="134" x="365.5" y="568"/><ellipse cx="380.5" cy="584" fill="#ADD1B2" rx="11" ry="11" style="stroke: #A80036; stroke-width: 1.0;"/><path d="M382.8438,579.6719 L383.0156,579.75 C383.2344,579.4375 383.4375,579.3438 383.7344,579.3438 C384.0313,579.3438 384.3125,579.4844 384.4688,579.75 C384.5625,579.9063 384.5781,580.0313 384.5781,580.4688 L384.5781,581.8906 C384.5781,582.3125 384.5469,582.5 384.4375,582.6563 C384.2656,582.875 384,583.0156 383.7344,583.0156 C383.5156,583.0156 383.2813,582.9063 383.1406,582.7656 C383,582.6406 382.9688,582.5156 382.9063,582.1094 C382.8125,581.7031 382.6406,581.4844 382.1563,581.2031 C381.6875,580.9531 381.0781,580.7969 380.5,580.7969 C378.7656,580.7969 377.5156,582.1094 377.5156,583.8906 L377.5156,584.9844 C377.5156,586.6875 378.8125,587.7813 380.8594,587.7813 C381.625,587.7813 382.3125,587.6563 382.7344,587.3906 C382.9219,587.2969 382.9219,587.2969 383.375,586.8125 C383.5625,586.625 383.7656,586.5469 383.9844,586.5469 C384.4531,586.5469 384.8438,586.9375 384.8438,587.3906 C384.8438,587.7813 384.5156,588.2344 383.9375,588.6406 C383.1875,589.1875 382.0313,589.4844 380.8125,589.4844 C377.9219,589.4844 375.8125,587.5938 375.8125,585.0156 L375.8125,583.8906 C375.8125,581.1719 377.8125,579.0938 380.4375,579.0938 C381.3125,579.0938 381.9063,579.2344 382.8438,579.6719 Z "/><text fill="#000000" font-family="sans-serif" font-size="12" lengthAdjust="spacingAndGlyphs" textLength="102" x="394.5" y="588.1543">FiltreUtilisateurs</text><line style="stroke: #A80036; stroke-width: 1.5;" x1="366.5" x2="498.5" y1="600" y2="600"/><line style="stroke: #A80036; stroke-width: 1.5;" x1="366.5" x2="498.5" y1="608" y2="608"/><!--class Utilisateur--><rect fill="#FEFECE" filter="url(#fu86f4n)" height="86.4141" style="stroke: #A80036; stroke-width: 1.5;" width="96" x="326.5" y="129"/><ellipse cx="341.5" cy="145" fill="#ADD1B2" rx="11" ry="11" style="stroke: #A80036; stroke-width: 1.0;"/><path d="M343.8438,140.6719 L344.0156,140.75 C344.2344,140.4375 344.4375,140.3438 344.7344,140.3438 C345.0313,140.3438 345.3125,140.4844 345.4688,140.75 C345.5625,140.9063 345.5781,141.0313 345.5781,141.4688 L345.5781,142.8906 C345.5781,143.3125 345.5469,143.5 345.4375,143.6563 C345.2656,143.875 345,144.0156 344.7344,144.0156 C344.5156,144.0156 344.2813,143.9063 344.1406,143.7656 C344,143.6406 343.9688,143.5156 343.9063,143.1094 C343.8125,142.7031 343.6406,142.4844 343.1563,142.2031 C342.6875,141.9531 342.0781,141.7969 341.5,141.7969 C339.7656,141.7969 338.5156,143.1094 338.5156,144.8906 L338.5156,145.9844 C338.5156,147.6875 339.8125,148.7813 341.8594,148.7813 C342.625,148.7813 343.3125,148.6563 343.7344,148.3906 C343.9219,148.2969 343.9219,148.2969 344.375,147.8125 C344.5625,147.625 344.7656,147.5469 344.9844,147.5469 C345.4531,147.5469 345.8438,147.9375 345.8438,148.3906 C345.8438,148.7813 345.5156,149.2344 344.9375,149.6406 C344.1875,150.1875 343.0313,150.4844 341.8125,150.4844 C338.9219,150.4844 336.8125,148.5938 336.8125,146.0156 L336.8125,144.8906 C336.8125,142.1719 338.8125,140.0938 341.4375,140.0938 C342.3125,140.0938 342.9063,140.2344 343.8438,140.6719 Z "/><text fill="#000000" font-family="sans-serif" font-size="12" lengthAdjust="spacingAndGlyphs" textLength="64" x="355.5" y="149.1543">Utilisateur</text><line style="stroke: #A80036; stroke-width: 1.5;" x1="327.5" x2="421.5" y1="161" y2="161"/><text fill="#000000" font-family="sans-serif" font-size="11" lengthAdjust="spacingAndGlyphs" textLength="73" x="332.5" y="175.2104">pseudonyme</text><text fill="#000000" font-family="sans-serif" font-size="11" lengthAdjust="spacingAndGlyphs" textLength="25" x="332.5" y="188.0151">nom</text><text fill="#000000" font-family="sans-serif" font-size="11" lengthAdjust="spacingAndGlyphs" textLength="44" x="332.5" y="200.8198">prenom</text><line style="stroke: #A80036; stroke-width: 1.5;" x1="327.5" x2="421.5" y1="207.4141" y2="207.4141"/><!--class UtilisateurIA--><rect fill="#FEFECE" filter="url(#fu86f4n)" height="48" style="stroke: #A80036; stroke-width: 1.5;" width="107" x="458" y="148"/><ellipse cx="473" cy="164" fill="#ADD1B2" rx="11" ry="11" style="stroke: #A80036; stroke-width: 1.0;"/><path d="M475.3438,159.6719 L475.5156,159.75 C475.7344,159.4375 475.9375,159.3438 476.2344,159.3438 C476.5313,159.3438 476.8125,159.4844 476.9688,159.75 C477.0625,159.9063 477.0781,160.0313 477.0781,160.4688 L477.0781,161.8906 C477.0781,162.3125 477.0469,162.5 476.9375,162.6563 C476.7656,162.875 476.5,163.0156 476.2344,163.0156 C476.0156,163.0156 475.7813,162.9063 475.6406,162.7656 C475.5,162.6406 475.4688,162.5156 475.4063,162.1094 C475.3125,161.7031 475.1406,161.4844 474.6563,161.2031 C474.1875,160.9531 473.5781,160.7969 473,160.7969 C471.2656,160.7969 470.0156,162.1094 470.0156,163.8906 L470.0156,164.9844 C470.0156,166.6875 471.3125,167.7813 473.3594,167.7813 C474.125,167.7813 474.8125,167.6563 475.2344,167.3906 C475.4219,167.2969 475.4219,167.2969 475.875,166.8125 C476.0625,166.625 476.2656,166.5469 476.4844,166.5469 C476.9531,166.5469 477.3438,166.9375 477.3438,167.3906 C477.3438,167.7813 477.0156,168.2344 476.4375,168.6406 C475.6875,169.1875 474.5313,169.4844 473.3125,169.4844 C470.4219,169.4844 468.3125,167.5938 468.3125,165.0156 L468.3125,163.8906 C468.3125,161.1719 470.3125,159.0938 472.9375,159.0938 C473.8125,159.0938 474.4063,159.2344 475.3438,159.6719 Z "/><text fill="#000000" font-family="sans-serif" font-size="12" lengthAdjust="spacingAndGlyphs" textLength="75" x="487" y="168.1543">UtilisateurIA</text><line style="stroke: #A80036; stroke-width: 1.5;" x1="459" x2="564" y1="180" y2="180"/><line style="stroke: #A80036; stroke-width: 1.5;" x1="459" x2="564" y1="188" y2="188"/><!--class UtilisateurHumain--><rect fill="#FEFECE" filter="url(#fu86f4n)" height="112.0234" style="stroke: #A80036; stroke-width: 1.5;" width="143" x="486" y="275"/><ellipse cx="501" cy="291" fill="#ADD1B2" rx="11" ry="11" style="stroke: #A80036; stroke-width: 1.0;"/><path d="M503.3438,286.6719 L503.5156,286.75 C503.7344,286.4375 503.9375,286.3438 504.2344,286.3438 C504.5313,286.3438 504.8125,286.4844 504.9688,286.75 C505.0625,286.9063 505.0781,287.0313 505.0781,287.4688 L505.0781,288.8906 C505.0781,289.3125 505.0469,289.5 504.9375,289.6563 C504.7656,289.875 504.5,290.0156 504.2344,290.0156 C504.0156,290.0156 503.7813,289.9063 503.6406,289.7656 C503.5,289.6406 503.4688,289.5156 503.4063,289.1094 C503.3125,288.7031 503.1406,288.4844 502.6563,288.2031 C502.1875,287.9531 501.5781,287.7969 501,287.7969 C499.2656,287.7969 498.0156,289.1094 498.0156,290.8906 L498.0156,291.9844 C498.0156,293.6875 499.3125,294.7813 501.3594,294.7813 C502.125,294.7813 502.8125,294.6563 503.2344,294.3906 C503.4219,294.2969 503.4219,294.2969 503.875,293.8125 C504.0625,293.625 504.2656,293.5469 504.4844,293.5469 C504.9531,293.5469 505.3438,293.9375 505.3438,294.3906 C505.3438,294.7813 505.0156,295.2344 504.4375,295.6406 C503.6875,296.1875 502.5313,296.4844 501.3125,296.4844 C498.4219,296.4844 496.3125,294.5938 496.3125,292.0156 L496.3125,290.8906 C496.3125,288.1719 498.3125,286.0938 500.9375,286.0938 C501.8125,286.0938 502.4063,286.2344 503.3438,286.6719 Z "/><text fill="#000000" font-family="sans-serif" font-size="12" lengthAdjust="spacingAndGlyphs" textLength="111" x="515" y="295.1543">UtilisateurHumain</text><line style="stroke: #A80036; stroke-width: 1.5;" x1="487" x2="628" y1="307" y2="307"/><text fill="#000000" font-family="sans-serif" font-size="11" lengthAdjust="spacingAndGlyphs" textLength="72" x="492" y="321.2104">motDePasse</text><text fill="#000000" font-family="sans-serif" font-size="11" lengthAdjust="spacingAndGlyphs" textLength="66" x="492" y="334.0151">adresseMel</text><text fill="#000000" font-family="sans-serif" font-size="11" lengthAdjust="spacingAndGlyphs" textLength="84" x="492" y="346.8198">dateNaissance</text><text fill="#000000" font-family="sans-serif" font-size="11" lengthAdjust="spacingAndGlyphs" textLength="119" x="492" y="359.6245">motDePasseParental</text><text fill="#000000" font-family="sans-serif" font-size="11" lengthAdjust="spacingAndGlyphs" textLength="32" x="492" y="372.4292">photo</text><line style="stroke: #A80036; stroke-width: 1.5;" x1="487" x2="628" y1="379.0234" y2="379.0234"/><!--class Session--><rect fill="#FEFECE" filter="url(#fu86f4n)" height="60.8047" style="stroke: #A80036; stroke-width: 1.5;" width="81" x="334" y="8"/><ellipse cx="349" cy="24" fill="#ADD1B2" rx="11" ry="11" style="stroke: #A80036; stroke-width: 1.0;"/><path d="M351.3438,19.6719 L351.5156,19.75 C351.7344,19.4375 351.9375,19.3438 352.2344,19.3438 C352.5313,19.3438 352.8125,19.4844 352.9688,19.75 C353.0625,19.9063 353.0781,20.0313 353.0781,20.4688 L353.0781,21.8906 C353.0781,22.3125 353.0469,22.5 352.9375,22.6563 C352.7656,22.875 352.5,23.0156 352.2344,23.0156 C352.0156,23.0156 351.7813,22.9063 351.6406,22.7656 C351.5,22.6406 351.4688,22.5156 351.4063,22.1094 C351.3125,21.7031 351.1406,21.4844 350.6563,21.2031 C350.1875,20.9531 349.5781,20.7969 349,20.7969 C347.2656,20.7969 346.0156,22.1094 346.0156,23.8906 L346.0156,24.9844 C346.0156,26.6875 347.3125,27.7813 349.3594,27.7813 C350.125,27.7813 350.8125,27.6563 351.2344,27.3906 C351.4219,27.2969 351.4219,27.2969 351.875,26.8125 C352.0625,26.625 352.2656,26.5469 352.4844,26.5469 C352.9531,26.5469 353.3438,26.9375 353.3438,27.3906 C353.3438,27.7813 353.0156,28.2344 352.4375,28.6406 C351.6875,29.1875 350.5313,29.4844 349.3125,29.4844 C346.4219,29.4844 344.3125,27.5938 344.3125,25.0156 L344.3125,23.8906 C344.3125,21.1719 346.3125,19.0938 348.9375,19.0938 C349.8125,19.0938 350.4063,19.2344 351.3438,19.6719 Z "/><text fill="#000000" font-family="sans-serif" font-size="12" lengthAdjust="spacingAndGlyphs" textLength="49" x="363" y="28.1543">Session</text><line style="stroke: #A80036; stroke-width: 1.5;" x1="335" x2="414" y1="40" y2="40"/><text fill="#000000" font-family="sans-serif" font-size="11" lengthAdjust="spacingAndGlyphs" textLength="69" x="340" y="54.2104">socketClient</text><line style="stroke: #A80036; stroke-width: 1.5;" x1="335" x2="414" y1="60.8047" y2="60.8047"/><!--class Discussion--><rect fill="#FEFECE" filter="url(#fu86f4n)" height="48" style="stroke: #A80036; stroke-width: 1.5;" width="99" x="192" y="148"/><ellipse cx="207" cy="164" fill="#ADD1B2" rx="11" ry="11" style="stroke: #A80036; stroke-width: 1.0;"/><path d="M209.3438,159.6719 L209.5156,159.75 C209.7344,159.4375 209.9375,159.3438 210.2344,159.3438 C210.5313,159.3438 210.8125,159.4844 210.9688,159.75 C211.0625,159.9063 211.0781,160.0313 211.0781,160.4688 L211.0781,161.8906 C211.0781,162.3125 211.0469,162.5 210.9375,162.6563 C210.7656,162.875 210.5,163.0156 210.2344,163.0156 C210.0156,163.0156 209.7813,162.9063 209.6406,162.7656 C209.5,162.6406 209.4688,162.5156 209.4063,162.1094 C209.3125,161.7031 209.1406,161.4844 208.6563,161.2031 C208.1875,160.9531 207.5781,160.7969 207,160.7969 C205.2656,160.7969 204.0156,162.1094 204.0156,163.8906 L204.0156,164.9844 C204.0156,166.6875 205.3125,167.7813 207.3594,167.7813 C208.125,167.7813 208.8125,167.6563 209.2344,167.3906 C209.4219,167.2969 209.4219,167.2969 209.875,166.8125 C210.0625,166.625 210.2656,166.5469 210.4844,166.5469 C210.9531,166.5469 211.3438,166.9375 211.3438,167.3906 C211.3438,167.7813 211.0156,168.2344 210.4375,168.6406 C209.6875,169.1875 208.5313,169.4844 207.3125,169.4844 C204.4219,169.4844 202.3125,167.5938 202.3125,165.0156 L202.3125,163.8906 C202.3125,161.1719 204.3125,159.0938 206.9375,159.0938 C207.8125,159.0938 208.4063,159.2344 209.3438,159.6719 Z "/><text fill="#000000" font-family="sans-serif" font-size="12" lengthAdjust="spacingAndGlyphs" textLength="67" x="221" y="168.1543">Discussion</text><line style="stroke: #A80036; stroke-width: 1.5;" x1="193" x2="290" y1="180" y2="180"/><line style="stroke: #A80036; stroke-width: 1.5;" x1="193" x2="290" y1="188" y2="188"/><!--class Message--><rect fill="#FEFECE" filter="url(#fu86f4n)" height="73.6094" style="stroke: #A80036; stroke-width: 1.5;" width="88" x="189.5" y="555"/><ellipse cx="204.5" cy="571" fill="#ADD1B2" rx="11" ry="11" style="stroke: #A80036; stroke-width: 1.0;"/><path d="M206.8438,566.6719 L207.0156,566.75 C207.2344,566.4375 207.4375,566.3438 207.7344,566.3438 C208.0313,566.3438 208.3125,566.4844 208.4688,566.75 C208.5625,566.9063 208.5781,567.0313 208.5781,567.4688 L208.5781,568.8906 C208.5781,569.3125 208.5469,569.5 208.4375,569.6563 C208.2656,569.875 208,570.0156 207.7344,570.0156 C207.5156,570.0156 207.2813,569.9063 207.1406,569.7656 C207,569.6406 206.9688,569.5156 206.9063,569.1094 C206.8125,568.7031 206.6406,568.4844 206.1563,568.2031 C205.6875,567.9531 205.0781,567.7969 204.5,567.7969 C202.7656,567.7969 201.5156,569.1094 201.5156,570.8906 L201.5156,571.9844 C201.5156,573.6875 202.8125,574.7813 204.8594,574.7813 C205.625,574.7813 206.3125,574.6563 206.7344,574.3906 C206.9219,574.2969 206.9219,574.2969 207.375,573.8125 C207.5625,573.625 207.7656,573.5469 207.9844,573.5469 C208.4531,573.5469 208.8438,573.9375 208.8438,574.3906 C208.8438,574.7813 208.5156,575.2344 207.9375,575.6406 C207.1875,576.1875 206.0313,576.4844 204.8125,576.4844 C201.9219,576.4844 199.8125,574.5938 199.8125,572.0156 L199.8125,570.8906 C199.8125,568.1719 201.8125,566.0938 204.4375,566.0938 C205.3125,566.0938 205.9063,566.2344 206.8438,566.6719 Z "/><text fill="#000000" font-family="sans-serif" font-size="12" lengthAdjust="spacingAndGlyphs" textLength="56" x="218.5" y="575.1543">Message</text><line style="stroke: #A80036; stroke-width: 1.5;" x1="190.5" x2="276.5" y1="587" y2="587"/><text fill="#000000" font-family="sans-serif" font-size="11" lengthAdjust="spacingAndGlyphs" textLength="28" x="195.5" y="601.2104">texte</text><text fill="#000000" font-family="sans-serif" font-size="11" lengthAdjust="spacingAndGlyphs" textLength="25" x="195.5" y="614.0151">date</text><line style="stroke: #A80036; stroke-width: 1.5;" x1="190.5" x2="276.5" y1="620.6094" y2="620.6094"/><!--class DiscussionTexte--><rect fill="#FEFECE" filter="url(#fu86f4n)" height="48" style="stroke: #A80036; stroke-width: 1.5;" width="133" x="6" y="307"/><ellipse cx="21" cy="323" fill="#ADD1B2" rx="11" ry="11" style="stroke: #A80036; stroke-width: 1.0;"/><path d="M23.3438,318.6719 L23.5156,318.75 C23.7344,318.4375 23.9375,318.3438 24.2344,318.3438 C24.5313,318.3438 24.8125,318.4844 24.9688,318.75 C25.0625,318.9063 25.0781,319.0313 25.0781,319.4688 L25.0781,320.8906 C25.0781,321.3125 25.0469,321.5 24.9375,321.6563 C24.7656,321.875 24.5,322.0156 24.2344,322.0156 C24.0156,322.0156 23.7813,321.9063 23.6406,321.7656 C23.5,321.6406 23.4688,321.5156 23.4063,321.1094 C23.3125,320.7031 23.1406,320.4844 22.6563,320.2031 C22.1875,319.9531 21.5781,319.7969 21,319.7969 C19.2656,319.7969 18.0156,321.1094 18.0156,322.8906 L18.0156,323.9844 C18.0156,325.6875 19.3125,326.7813 21.3594,326.7813 C22.125,326.7813 22.8125,326.6563 23.2344,326.3906 C23.4219,326.2969 23.4219,326.2969 23.875,325.8125 C24.0625,325.625 24.2656,325.5469 24.4844,325.5469 C24.9531,325.5469 25.3438,325.9375 25.3438,326.3906 C25.3438,326.7813 25.0156,327.2344 24.4375,327.6406 C23.6875,328.1875 22.5313,328.4844 21.3125,328.4844 C18.4219,328.4844 16.3125,326.5938 16.3125,324.0156 L16.3125,322.8906 C16.3125,320.1719 18.3125,318.0938 20.9375,318.0938 C21.8125,318.0938 22.4063,318.2344 23.3438,318.6719 Z "/><text fill="#000000" font-family="sans-serif" font-size="12" lengthAdjust="spacingAndGlyphs" textLength="101" x="35" y="327.1543">DiscussionTexte</text><line style="stroke: #A80036; stroke-width: 1.5;" x1="7" x2="138" y1="339" y2="339"/><line style="stroke: #A80036; stroke-width: 1.5;" x1="7" x2="138" y1="347" y2="347"/><!--class DiscussionAudio--><rect fill="#FEFECE" filter="url(#fu86f4n)" height="48" style="stroke: #A80036; stroke-width: 1.5;" width="134" x="174.5" y="307"/><ellipse cx="189.5" cy="323" fill="#ADD1B2" rx="11" ry="11" style="stroke: #A80036; stroke-width: 1.0;"/><path d="M191.8438,318.6719 L192.0156,318.75 C192.2344,318.4375 192.4375,318.3438 192.7344,318.3438 C193.0313,318.3438 193.3125,318.4844 193.4688,318.75 C193.5625,318.9063 193.5781,319.0313 193.5781,319.4688 L193.5781,320.8906 C193.5781,321.3125 193.5469,321.5 193.4375,321.6563 C193.2656,321.875 193,322.0156 192.7344,322.0156 C192.5156,322.0156 192.2813,321.9063 192.1406,321.7656 C192,321.6406 191.9688,321.5156 191.9063,321.1094 C191.8125,320.7031 191.6406,320.4844 191.1563,320.2031 C190.6875,319.9531 190.0781,319.7969 189.5,319.7969 C187.7656,319.7969 186.5156,321.1094 186.5156,322.8906 L186.5156,323.9844 C186.5156,325.6875 187.8125,326.7813 189.8594,326.7813 C190.625,326.7813 191.3125,326.6563 191.7344,326.3906 C191.9219,326.2969 191.9219,326.2969 192.375,325.8125 C192.5625,325.625 192.7656,325.5469 192.9844,325.5469 C193.4531,325.5469 193.8438,325.9375 193.8438,326.3906 C193.8438,326.7813 193.5156,327.2344 192.9375,327.6406 C192.1875,328.1875 191.0313,328.4844 189.8125,328.4844 C186.9219,328.4844 184.8125,326.5938 184.8125,324.0156 L184.8125,322.8906 C184.8125,320.1719 186.8125,318.0938 189.4375,318.0938 C190.3125,318.0938 190.9063,318.2344 191.8438,318.6719 Z "/><text fill="#000000" font-family="sans-serif" font-size="12" lengthAdjust="spacingAndGlyphs" textLength="102" x="203.5" y="327.1543">DiscussionAudio</text><line style="stroke: #A80036; stroke-width: 1.5;" x1="175.5" x2="307.5" y1="339" y2="339"/><line style="stroke: #A80036; stroke-width: 1.5;" x1="175.5" x2="307.5" y1="347" y2="347"/><!--class Serveur--><rect fill="#FEFECE" filter="url(#fu86f4n)" height="60.8047" style="stroke: #A80036; stroke-width: 1.5;" width="94" x="199.5" y="8"/><ellipse cx="220.8" cy="24" fill="#ADD1B2" rx="11" ry="11" style="stroke: #A80036; stroke-width: 1.0;"/><path d="M223.1438,19.6719 L223.3156,19.75 C223.5344,19.4375 223.7375,19.3438 224.0344,19.3438 C224.3313,19.3438 224.6125,19.4844 224.7688,19.75 C224.8625,19.9063 224.8781,20.0313 224.8781,20.4688 L224.8781,21.8906 C224.8781,22.3125 224.8469,22.5 224.7375,22.6563 C224.5656,22.875 224.3,23.0156 224.0344,23.0156 C223.8156,23.0156 223.5813,22.9063 223.4406,22.7656 C223.3,22.6406 223.2688,22.5156 223.2063,22.1094 C223.1125,21.7031 222.9406,21.4844 222.4563,21.2031 C221.9875,20.9531 221.3781,20.7969 220.8,20.7969 C219.0656,20.7969 217.8156,22.1094 217.8156,23.8906 L217.8156,24.9844 C217.8156,26.6875 219.1125,27.7813 221.1594,27.7813 C221.925,27.7813 222.6125,27.6563 223.0344,27.3906 C223.2219,27.2969 223.2219,27.2969 223.675,26.8125 C223.8625,26.625 224.0656,26.5469 224.2844,26.5469 C224.7531,26.5469 225.1438,26.9375 225.1438,27.3906 C225.1438,27.7813 224.8156,28.2344 224.2375,28.6406 C223.4875,29.1875 222.3313,29.4844 221.1125,29.4844 C218.2219,29.4844 216.1125,27.5938 216.1125,25.0156 L216.1125,23.8906 C216.1125,21.1719 218.1125,19.0938 220.7375,19.0938 C221.6125,19.0938 222.2063,19.2344 223.1438,19.6719 Z "/><text fill="#000000" font-family="sans-serif" font-size="12" lengthAdjust="spacingAndGlyphs" textLength="48" x="236.2" y="28.1543">Serveur</text><line style="stroke: #A80036; stroke-width: 1.5;" x1="200.5" x2="292.5" y1="40" y2="40"/><text fill="#000000" font-family="sans-serif" font-size="11" lengthAdjust="spacingAndGlyphs" textLength="82" x="205.5" y="54.2104">socketServeur</text><line style="stroke: #A80036; stroke-width: 1.5;" x1="200.5" x2="292.5" y1="60.8047" y2="60.8047"/><path d="M557.5,400.586 C557.5,417.209 557.5,433.865 557.5,446.693 " fill="none" style="stroke: #A80036; stroke-width: 1.0;"/><polygon fill="#A80036" points="557.5,387.335,553.5,393.335,557.5,399.335,561.5,393.335,557.5,387.335" style="stroke: #A80036; stroke-width: 1.0;"/><path d="M566.146,514.867 C569.265,530.3323 572.712,547.4272 575.549,561.4935 " fill="none" style="stroke: #A80036; stroke-width: 1.0; stroke-dasharray: 7.0,7.0;"/><polygon fill="none" points="559.277,516.216,562.184,495.227,573,513.448,559.277,516.216" style="stroke: #A80036; stroke-width: 1.0;"/><path d="M518.588,509.044 C498.404,528.26 474.373,551.1372 456.836,567.8317 " fill="none" style="stroke: #A80036; stroke-width: 1.0; stroke-dasharray: 7.0,7.0;"/><polygon fill="none" points="513.79,503.947,533.102,495.227,523.443,514.087,513.79,503.947" style="stroke: #A80036; stroke-width: 1.0;"/><path d="M374.5,69.011 C374.5,82.795 374.5,99.67 374.5,115.694 " fill="none" style="stroke: #A80036; stroke-width: 1.0;"/><polygon fill="#A80036" points="374.5,128.869,378.5,122.869,374.5,116.869,370.5,122.869,374.5,128.869" style="stroke: #A80036; stroke-width: 1.0;"/><path d="M380.381,215.38 C391.795,297.641 416.768,477.623 427.469,554.7451 " fill="none" style="stroke: #A80036; stroke-width: 1.0;"/><polygon fill="#A80036" points="429.295,567.9019,432.4324,561.4091,427.6457,556.0158,424.5083,562.5086,429.295,567.9019" style="stroke: #A80036; stroke-width: 1.0;"/><path d="M442.927,172 C447.855,172 452.784,172 457.713,172 " fill="none" style="stroke: #A80036; stroke-width: 1.0;"/><polygon fill="none" points="442.664,179,422.664,172,442.664,165,442.664,179" style="stroke: #A80036; stroke-width: 1.0;"/><path d="M437.833,227.335 C455.746,242.703 475.254,259.44 493.222,274.855 " fill="none" style="stroke: #A80036; stroke-width: 1.0;"/><polygon fill="none" points="433.202,232.585,422.581,214.25,442.318,221.96,433.202,232.585" style="stroke: #A80036; stroke-width: 1.0;"/><path d="M201.795,209.886 C169.429,239.954 124.729,281.479 97.2635,306.995 " fill="none" style="stroke: #A80036; stroke-width: 1.0;"/><polygon fill="none" points="197.146,204.65,216.563,196.166,206.675,214.907,197.146,204.65" style="stroke: #A80036; stroke-width: 1.0;"/><path d="M241.5,216.187 C241.5,245.542 241.5,283.219 241.5,306.995 " fill="none" style="stroke: #A80036; stroke-width: 1.0;"/><polygon fill="none" points="234.5,216.166,241.5,196.166,248.5,216.166,234.5,216.166" style="stroke: #A80036; stroke-width: 1.0;"/><path d="M291.115,172 C302.841,172 314.567,172 326.293,172 " fill="none" style="stroke: #A80036; stroke-width: 1.0;"/><path d="M94.0735,366.705 C124.546,415.725 179.927,504.817 210.931,554.6931 " fill="none" style="stroke: #A80036; stroke-width: 1.0;"/><polygon fill="#A80036" points="87.0716,355.441,86.8419,362.6484,93.4066,365.6325,93.6363,358.4251,87.0716,355.441" style="stroke: #A80036; stroke-width: 1.0;"/><path d="M367.419,215.102 C359.485,258.757 345.119,328.656 325.5,387 C307,442.017 278.76,502.297 258.448,542.9599 " fill="none" style="stroke: #A80036; stroke-width: 1.0;"/><polygon fill="#A80036" points="252.551,554.6629,258.8233,551.1051,257.9516,543.9469,251.6793,547.5047,252.551,554.6629" style="stroke: #A80036; stroke-width: 1.0;"/><path d="M275.226,69.011 C292.4,86.655 314.502,109.361 333.49,128.869 " fill="none" style="stroke: #A80036; stroke-width: 1.0;"/><path d="M244.873,82.292 C244.046,104.04 243.073,129.619 242.386,147.707 " fill="none" style="stroke: #A80036; stroke-width: 1.0;"/><polygon fill="#A80036" points="245.378,69.011,241.1528,74.8546,244.9218,81.0023,249.147,75.1587,245.378,69.011" style="stroke: #A80036; stroke-width: 1.0;"/></g></svg>