<?xml version="1.0" encoding="UTF-8" standalone="no"?><svg xmlns="http://www.w3.org/2000/svg" xmlns:xlink="http://www.w3.org/1999/xlink" contentScriptType="application/ecmascript" contentStyleType="text/css" height="688px" preserveAspectRatio="none" style="width:783px;height:688px;" version="1.1" viewBox="0 0 783 688" width="783px" zoomAndPan="magnify"><defs><filter height="300%" id="fu0nwhy" width="300%" x="-1" y="-1"><feGaussianBlur result="blurOut" stdDeviation="2.0"/><feColorMatrix in="blurOut" result="blurOut2" type="matrix" values="0 0 0 0 0 0 0 0 0 0 0 0 0 0 0 0 0 0 .4 0"/><feOffset dx="4.0" dy="4.0" in="blurOut2" result="blurOut3"/><feBlend in="SourceGraphic" in2="blurOut3" mode="normal"/></filter></defs><g><!--class IFiltre--><rect fill="#FEFECE" filter="url(#fu0nwhy)" height="60.8047" style="stroke: #A80036; stroke-width: 1.5;" width="118" x="578.5" y="485"/><ellipse cx="616.45" cy="501" fill="#B4A7E5" rx="11" ry="11" style="stroke: #A80036; stroke-width: 1.0;"/><path d="M617.4031,497.7813 L617.4031,504.2969 L619.1219,504.2969 C619.575,504.2969 619.7156,504.3281 619.8875,504.4531 C620.1219,504.625 620.2313,504.875 620.2313,505.1563 C620.2313,505.7188 619.8719,506 619.1219,506 L613.9813,506 C613.575,506 613.3719,505.9531 613.2156,505.8281 C612.9969,505.6719 612.8563,505.4063 612.8563,505.1563 C612.8563,504.8594 613.0125,504.5781 613.2625,504.4219 C613.4188,504.3125 613.5438,504.2969 613.9813,504.2969 L615.7,504.2969 L615.7,497.7813 L613.9813,497.7813 C613.5594,497.7813 613.3719,497.75 613.2156,497.6406 C612.9969,497.4688 612.8563,497.2188 612.8563,496.9375 C612.8563,496.6563 613.0125,496.3594 613.2625,496.2031 C613.4188,496.1094 613.5438,496.0938 613.9813,496.0938 L619.1219,496.0938 C619.575,496.0938 619.7156,496.125 619.8875,496.2344 C620.1219,496.4063 620.2313,496.6719 620.2313,496.9375 C620.2313,497.2344 620.0906,497.5156 619.825,497.6719 C619.7,497.75 619.5125,497.7813 619.1219,497.7813 Z "/><text fill="#000000" font-family="sans-serif" font-size="12" font-style="italic" lengthAdjust="spacingAndGlyphs" textLength="35" x="635.55" y="505.1543">IFiltre</text><line style="stroke: #A80036; stroke-width: 1.5;" x1="579.5" x2="695.5" y1="517" y2="517"/><line style="stroke: #A80036; stroke-width: 1.5;" x1="579.5" x2="695.5" y1="525" y2="525"/><text fill="#000000" font-family="sans-serif" font-size="11" lengthAdjust="spacingAndGlyphs" textLength="106" x="584.5" y="539.2104">Object: getObject()</text><!--class FiltreMots--><rect fill="#FEFECE" filter="url(#fu0nwhy)" height="60.8047" style="stroke: #A80036; stroke-width: 1.5;" width="93" x="593" y="612.5"/><ellipse cx="608" cy="628.5" fill="#ADD1B2" rx="11" ry="11" style="stroke: #A80036; stroke-width: 1.0;"/><path d="M610.3438,624.1719 L610.5156,624.25 C610.7344,623.9375 610.9375,623.8438 611.2344,623.8438 C611.5313,623.8438 611.8125,623.9844 611.9688,624.25 C612.0625,624.4063 612.0781,624.5313 612.0781,624.9688 L612.0781,626.3906 C612.0781,626.8125 612.0469,627 611.9375,627.1563 C611.7656,627.375 611.5,627.5156 611.2344,627.5156 C611.0156,627.5156 610.7813,627.4063 610.6406,627.2656 C610.5,627.1406 610.4688,627.0156 610.4063,626.6094 C610.3125,626.2031 610.1406,625.9844 609.6563,625.7031 C609.1875,625.4531 608.5781,625.2969 608,625.2969 C606.2656,625.2969 605.0156,626.6094 605.0156,628.3906 L605.0156,629.4844 C605.0156,631.1875 606.3125,632.2813 608.3594,632.2813 C609.125,632.2813 609.8125,632.1563 610.2344,631.8906 C610.4219,631.7969 610.4219,631.7969 610.875,631.3125 C611.0625,631.125 611.2656,631.0469 611.4844,631.0469 C611.9531,631.0469 612.3438,631.4375 612.3438,631.8906 C612.3438,632.2813 612.0156,632.7344 611.4375,633.1406 C610.6875,633.6875 609.5313,633.9844 608.3125,633.9844 C605.4219,633.9844 603.3125,632.0938 603.3125,629.5156 L603.3125,628.3906 C603.3125,625.6719 605.3125,623.5938 607.9375,623.5938 C608.8125,623.5938 609.4063,623.7344 610.3438,624.1719 Z "/><text fill="#000000" font-family="sans-serif" font-size="12" lengthAdjust="spacingAndGlyphs" textLength="61" x="622" y="632.6543">FiltreMots</text><line style="stroke: #A80036; stroke-width: 1.5;" x1="594" x2="685" y1="644.5" y2="644.5"/><rect fill="none" height="6" style="stroke: #C82930; stroke-width: 1.0;" width="6" x="601" y="653.4023"/><text fill="#000000" font-family="sans-serif" font-size="11" lengthAdjust="spacingAndGlyphs" textLength="64" x="613" y="658.7104">String: mot</text><line style="stroke: #A80036; stroke-width: 1.5;" x1="594" x2="685" y1="665.3047" y2="665.3047"/><!--class FiltreUtilisateurs--><rect fill="#FEFECE" filter="url(#fu0nwhy)" height="48" style="stroke: #A80036; stroke-width: 1.5;" width="134" x="423.5" y="619"/><ellipse cx="438.5" cy="635" fill="#ADD1B2" rx="11" ry="11" style="stroke: #A80036; stroke-width: 1.0;"/><path d="M440.8438,630.6719 L441.0156,630.75 C441.2344,630.4375 441.4375,630.3438 441.7344,630.3438 C442.0313,630.3438 442.3125,630.4844 442.4688,630.75 C442.5625,630.9063 442.5781,631.0313 442.5781,631.4688 L442.5781,632.8906 C442.5781,633.3125 442.5469,633.5 442.4375,633.6563 C442.2656,633.875 442,634.0156 441.7344,634.0156 C441.5156,634.0156 441.2813,633.9063 441.1406,633.7656 C441,633.6406 440.9688,633.5156 440.9063,633.1094 C440.8125,632.7031 440.6406,632.4844 440.1563,632.2031 C439.6875,631.9531 439.0781,631.7969 438.5,631.7969 C436.7656,631.7969 435.5156,633.1094 435.5156,634.8906 L435.5156,635.9844 C435.5156,637.6875 436.8125,638.7813 438.8594,638.7813 C439.625,638.7813 440.3125,638.6563 440.7344,638.3906 C440.9219,638.2969 440.9219,638.2969 441.375,637.8125 C441.5625,637.625 441.7656,637.5469 441.9844,637.5469 C442.4531,637.5469 442.8438,637.9375 442.8438,638.3906 C442.8438,638.7813 442.5156,639.2344 441.9375,639.6406 C441.1875,640.1875 440.0313,640.4844 438.8125,640.4844 C435.9219,640.4844 433.8125,638.5938 433.8125,636.0156 L433.8125,634.8906 C433.8125,632.1719 435.8125,630.0938 438.4375,630.0938 C439.3125,630.0938 439.9063,630.2344 440.8438,630.6719 Z "/><text fill="#000000" font-family="sans-serif" font-size="12" lengthAdjust="spacingAndGlyphs" textLength="102" x="452.5" y="639.1543">FiltreUtilisateurs</text><line style="stroke: #A80036; stroke-width: 1.5;" x1="424.5" x2="556.5" y1="651" y2="651"/><line style="stroke: #A80036; stroke-width: 1.5;" x1="424.5" x2="556.5" y1="659" y2="659"/><!--class Utilisateur--><rect fill="#FEFECE" filter="url(#fu0nwhy)" height="86.4141" style="stroke: #A80036; stroke-width: 1.5;" width="141" x="402" y="154"/><ellipse cx="437.25" cy="170" fill="#ADD1B2" rx="11" ry="11" style="stroke: #A80036; stroke-width: 1.0;"/><path d="M439.5938,165.6719 L439.7656,165.75 C439.9844,165.4375 440.1875,165.3438 440.4844,165.3438 C440.7813,165.3438 441.0625,165.4844 441.2188,165.75 C441.3125,165.9063 441.3281,166.0313 441.3281,166.4688 L441.3281,167.8906 C441.3281,168.3125 441.2969,168.5 441.1875,168.6563 C441.0156,168.875 440.75,169.0156 440.4844,169.0156 C440.2656,169.0156 440.0313,168.9063 439.8906,168.7656 C439.75,168.6406 439.7188,168.5156 439.6563,168.1094 C439.5625,167.7031 439.3906,167.4844 438.9063,167.2031 C438.4375,166.9531 437.8281,166.7969 437.25,166.7969 C435.5156,166.7969 434.2656,168.1094 434.2656,169.8906 L434.2656,170.9844 C434.2656,172.6875 435.5625,173.7813 437.6094,173.7813 C438.375,173.7813 439.0625,173.6563 439.4844,173.3906 C439.6719,173.2969 439.6719,173.2969 440.125,172.8125 C440.3125,172.625 440.5156,172.5469 440.7344,172.5469 C441.2031,172.5469 441.5938,172.9375 441.5938,173.3906 C441.5938,173.7813 441.2656,174.2344 440.6875,174.6406 C439.9375,175.1875 438.7813,175.4844 437.5625,175.4844 C434.6719,175.4844 432.5625,173.5938 432.5625,171.0156 L432.5625,169.8906 C432.5625,167.1719 434.5625,165.0938 437.1875,165.0938 C438.0625,165.0938 438.6563,165.2344 439.5938,165.6719 Z "/><text fill="#000000" font-family="sans-serif" font-size="12" lengthAdjust="spacingAndGlyphs" textLength="64" x="455.75" y="174.1543">Utilisateur</text><line style="stroke: #A80036; stroke-width: 1.5;" x1="403" x2="542" y1="186" y2="186"/><rect fill="none" height="6" style="stroke: #C82930; stroke-width: 1.0;" width="6" x="410" y="194.9023"/><text fill="#000000" font-family="sans-serif" font-size="11" lengthAdjust="spacingAndGlyphs" textLength="115" x="422" y="200.2104">String: pseudonyme</text><rect fill="none" height="6" style="stroke: #C82930; stroke-width: 1.0;" width="6" x="410" y="207.707"/><text fill="#000000" font-family="sans-serif" font-size="11" lengthAdjust="spacingAndGlyphs" textLength="67" x="422" y="213.0151">String: nom</text><rect fill="none" height="6" style="stroke: #C82930; stroke-width: 1.0;" width="6" x="410" y="220.5117"/><text fill="#000000" font-family="sans-serif" font-size="11" lengthAdjust="spacingAndGlyphs" textLength="86" x="422" y="225.8198">String: prenom</text><line style="stroke: #A80036; stroke-width: 1.5;" x1="403" x2="542" y1="232.4141" y2="232.4141"/><!--class UtilisateurIA--><rect fill="#FEFECE" filter="url(#fu0nwhy)" height="60.8047" style="stroke: #A80036; stroke-width: 1.5;" width="196" x="578.5" y="166.5"/><ellipse cx="634.75" cy="182.5" fill="#ADD1B2" rx="11" ry="11" style="stroke: #A80036; stroke-width: 1.0;"/><path d="M637.0938,178.1719 L637.2656,178.25 C637.4844,177.9375 637.6875,177.8438 637.9844,177.8438 C638.2813,177.8438 638.5625,177.9844 638.7188,178.25 C638.8125,178.4063 638.8281,178.5313 638.8281,178.9688 L638.8281,180.3906 C638.8281,180.8125 638.7969,181 638.6875,181.1563 C638.5156,181.375 638.25,181.5156 637.9844,181.5156 C637.7656,181.5156 637.5313,181.4063 637.3906,181.2656 C637.25,181.1406 637.2188,181.0156 637.1563,180.6094 C637.0625,180.2031 636.8906,179.9844 636.4063,179.7031 C635.9375,179.4531 635.3281,179.2969 634.75,179.2969 C633.0156,179.2969 631.7656,180.6094 631.7656,182.3906 L631.7656,183.4844 C631.7656,185.1875 633.0625,186.2813 635.1094,186.2813 C635.875,186.2813 636.5625,186.1563 636.9844,185.8906 C637.1719,185.7969 637.1719,185.7969 637.625,185.3125 C637.8125,185.125 638.0156,185.0469 638.2344,185.0469 C638.7031,185.0469 639.0938,185.4375 639.0938,185.8906 C639.0938,186.2813 638.7656,186.7344 638.1875,187.1406 C637.4375,187.6875 636.2813,187.9844 635.0625,187.9844 C632.1719,187.9844 630.0625,186.0938 630.0625,183.5156 L630.0625,182.3906 C630.0625,179.6719 632.0625,177.5938 634.6875,177.5938 C635.5625,177.5938 636.1563,177.7344 637.0938,178.1719 Z "/><text fill="#000000" font-family="sans-serif" font-size="12" lengthAdjust="spacingAndGlyphs" textLength="75" x="655.25" y="186.6543">UtilisateurIA</text><line style="stroke: #A80036; stroke-width: 1.5;" x1="579.5" x2="773.5" y1="198.5" y2="198.5"/><line style="stroke: #A80036; stroke-width: 1.5;" x1="579.5" x2="773.5" y1="206.5" y2="206.5"/><ellipse cx="589.5" cy="218.4023" fill="#84BE84" rx="3" ry="3" style="stroke: #038048; stroke-width: 1.0;"/><text fill="#000000" font-family="sans-serif" font-size="11" lengthAdjust="spacingAndGlyphs" textLength="170" x="598.5" y="220.7104">Message: repondre(Message)</text><!--class UtilisateurHumain--><rect fill="#FEFECE" filter="url(#fu0nwhy)" height="124.8281" style="stroke: #A80036; stroke-width: 1.5;" width="187" x="544" y="300"/><ellipse cx="578.8" cy="316" fill="#ADD1B2" rx="11" ry="11" style="stroke: #A80036; stroke-width: 1.0;"/><path d="M581.1438,311.6719 L581.3156,311.75 C581.5344,311.4375 581.7375,311.3438 582.0344,311.3438 C582.3313,311.3438 582.6125,311.4844 582.7688,311.75 C582.8625,311.9063 582.8781,312.0313 582.8781,312.4688 L582.8781,313.8906 C582.8781,314.3125 582.8469,314.5 582.7375,314.6563 C582.5656,314.875 582.3,315.0156 582.0344,315.0156 C581.8156,315.0156 581.5813,314.9063 581.4406,314.7656 C581.3,314.6406 581.2688,314.5156 581.2063,314.1094 C581.1125,313.7031 580.9406,313.4844 580.4563,313.2031 C579.9875,312.9531 579.3781,312.7969 578.8,312.7969 C577.0656,312.7969 575.8156,314.1094 575.8156,315.8906 L575.8156,316.9844 C575.8156,318.6875 577.1125,319.7813 579.1594,319.7813 C579.925,319.7813 580.6125,319.6563 581.0344,319.3906 C581.2219,319.2969 581.2219,319.2969 581.675,318.8125 C581.8625,318.625 582.0656,318.5469 582.2844,318.5469 C582.7531,318.5469 583.1438,318.9375 583.1438,319.3906 C583.1438,319.7813 582.8156,320.2344 582.2375,320.6406 C581.4875,321.1875 580.3313,321.4844 579.1125,321.4844 C576.2219,321.4844 574.1125,319.5938 574.1125,317.0156 L574.1125,315.8906 C574.1125,313.1719 576.1125,311.0938 578.7375,311.0938 C579.6125,311.0938 580.2063,311.2344 581.1438,311.6719 Z "/><text fill="#000000" font-family="sans-serif" font-size="12" lengthAdjust="spacingAndGlyphs" textLength="111" x="597.2" y="320.1543">UtilisateurHumain</text><line style="stroke: #A80036; stroke-width: 1.5;" x1="545" x2="730" y1="332" y2="332"/><rect fill="none" height="6" style="stroke: #C82930; stroke-width: 1.0;" width="6" x="552" y="340.9023"/><text fill="#000000" font-family="sans-serif" font-size="11" lengthAdjust="spacingAndGlyphs" textLength="114" x="564" y="346.2104">String: motDePasse</text><rect fill="none" height="6" style="stroke: #C82930; stroke-width: 1.0;" width="6" x="552" y="353.707"/><text fill="#000000" font-family="sans-serif" font-size="11" lengthAdjust="spacingAndGlyphs" textLength="108" x="564" y="359.0151">String: adresseMel</text><rect fill="none" height="6" style="stroke: #C82930; stroke-width: 1.0;" width="6" x="552" y="366.5117"/><text fill="#000000" font-family="sans-serif" font-size="11" lengthAdjust="spacingAndGlyphs" textLength="118" x="564" y="371.8198">Date: dateNaissance</text><rect fill="none" height="6" style="stroke: #C82930; stroke-width: 1.0;" width="6" x="552" y="379.3164"/><text fill="#000000" font-family="sans-serif" font-size="11" lengthAdjust="spacingAndGlyphs" textLength="161" x="564" y="384.6245">String: motDePasseParental</text><rect fill="none" height="6" style="stroke: #C82930; stroke-width: 1.0;" width="6" x="552" y="392.1211"/><text fill="#000000" font-family="sans-serif" font-size="11" lengthAdjust="spacingAndGlyphs" textLength="74" x="564" y="397.4292">String: photo</text><line style="stroke: #A80036; stroke-width: 1.5;" x1="545" x2="730" y1="404.0234" y2="404.0234"/><ellipse cx="555" cy="415.9258" fill="#84BE84" rx="3" ry="3" style="stroke: #038048; stroke-width: 1.0;"/><text fill="#000000" font-family="sans-serif" font-size="11" lengthAdjust="spacingAndGlyphs" textLength="119" x="564" y="418.2339">void: addFiltre(IFiltre)</text><!--class Session--><rect fill="#FEFECE" filter="url(#fu0nwhy)" height="73.6094" style="stroke: #A80036; stroke-width: 1.5;" width="141" x="477" y="14"/><ellipse cx="519" cy="30" fill="#ADD1B2" rx="11" ry="11" style="stroke: #A80036; stroke-width: 1.0;"/><path d="M521.3438,25.6719 L521.5156,25.75 C521.7344,25.4375 521.9375,25.3438 522.2344,25.3438 C522.5313,25.3438 522.8125,25.4844 522.9688,25.75 C523.0625,25.9063 523.0781,26.0313 523.0781,26.4688 L523.0781,27.8906 C523.0781,28.3125 523.0469,28.5 522.9375,28.6563 C522.7656,28.875 522.5,29.0156 522.2344,29.0156 C522.0156,29.0156 521.7813,28.9063 521.6406,28.7656 C521.5,28.6406 521.4688,28.5156 521.4063,28.1094 C521.3125,27.7031 521.1406,27.4844 520.6563,27.2031 C520.1875,26.9531 519.5781,26.7969 519,26.7969 C517.2656,26.7969 516.0156,28.1094 516.0156,29.8906 L516.0156,30.9844 C516.0156,32.6875 517.3125,33.7813 519.3594,33.7813 C520.125,33.7813 520.8125,33.6563 521.2344,33.3906 C521.4219,33.2969 521.4219,33.2969 521.875,32.8125 C522.0625,32.625 522.2656,32.5469 522.4844,32.5469 C522.9531,32.5469 523.3438,32.9375 523.3438,33.3906 C523.3438,33.7813 523.0156,34.2344 522.4375,34.6406 C521.6875,35.1875 520.5313,35.4844 519.3125,35.4844 C516.4219,35.4844 514.3125,33.5938 514.3125,31.0156 L514.3125,29.8906 C514.3125,27.1719 516.3125,25.0938 518.9375,25.0938 C519.8125,25.0938 520.4063,25.2344 521.3438,25.6719 Z "/><text fill="#000000" font-family="sans-serif" font-size="12" lengthAdjust="spacingAndGlyphs" textLength="49" x="539" y="34.1543">Session</text><line style="stroke: #A80036; stroke-width: 1.5;" x1="478" x2="617" y1="46" y2="46"/><rect fill="none" height="6" style="stroke: #C82930; stroke-width: 1.0;" width="6" x="485" y="54.9023"/><text fill="#000000" font-family="sans-serif" font-size="11" lengthAdjust="spacingAndGlyphs" textLength="115" x="497" y="60.2104">Socket: socketClient</text><line style="stroke: #A80036; stroke-width: 1.5;" x1="478" x2="617" y1="66.8047" y2="66.8047"/><ellipse cx="488" cy="78.707" fill="#84BE84" rx="3" ry="3" style="stroke: #038048; stroke-width: 1.0;"/><text fill="#000000" font-family="sans-serif" font-size="11" lengthAdjust="spacingAndGlyphs" textLength="79" x="497" y="81.0151">bool: fermer()</text><!--class Discussion--><rect fill="#FEFECE" filter="url(#fu0nwhy)" height="48" style="stroke: #A80036; stroke-width: 1.5;" width="99" x="250" y="173"/><ellipse cx="265" cy="189" fill="#ADD1B2" rx="11" ry="11" style="stroke: #A80036; stroke-width: 1.0;"/><path d="M267.3438,184.6719 L267.5156,184.75 C267.7344,184.4375 267.9375,184.3438 268.2344,184.3438 C268.5313,184.3438 268.8125,184.4844 268.9688,184.75 C269.0625,184.9063 269.0781,185.0313 269.0781,185.4688 L269.0781,186.8906 C269.0781,187.3125 269.0469,187.5 268.9375,187.6563 C268.7656,187.875 268.5,188.0156 268.2344,188.0156 C268.0156,188.0156 267.7813,187.9063 267.6406,187.7656 C267.5,187.6406 267.4688,187.5156 267.4063,187.1094 C267.3125,186.7031 267.1406,186.4844 266.6563,186.2031 C266.1875,185.9531 265.5781,185.7969 265,185.7969 C263.2656,185.7969 262.0156,187.1094 262.0156,188.8906 L262.0156,189.9844 C262.0156,191.6875 263.3125,192.7813 265.3594,192.7813 C266.125,192.7813 266.8125,192.6563 267.2344,192.3906 C267.4219,192.2969 267.4219,192.2969 267.875,191.8125 C268.0625,191.625 268.2656,191.5469 268.4844,191.5469 C268.9531,191.5469 269.3438,191.9375 269.3438,192.3906 C269.3438,192.7813 269.0156,193.2344 268.4375,193.6406 C267.6875,194.1875 266.5313,194.4844 265.3125,194.4844 C262.4219,194.4844 260.3125,192.5938 260.3125,190.0156 L260.3125,188.8906 C260.3125,186.1719 262.3125,184.0938 264.9375,184.0938 C265.8125,184.0938 266.4063,184.2344 267.3438,184.6719 Z "/><text fill="#000000" font-family="sans-serif" font-size="12" lengthAdjust="spacingAndGlyphs" textLength="67" x="279" y="193.1543">Discussion</text><line style="stroke: #A80036; stroke-width: 1.5;" x1="251" x2="348" y1="205" y2="205"/><line style="stroke: #A80036; stroke-width: 1.5;" x1="251" x2="348" y1="213" y2="213"/><!--class Message--><rect fill="#FEFECE" filter="url(#fu0nwhy)" height="73.6094" style="stroke: #A80036; stroke-width: 1.5;" width="96" x="232.5" y="606"/><ellipse cx="251.1" cy="622" fill="#ADD1B2" rx="11" ry="11" style="stroke: #A80036; stroke-width: 1.0;"/><path d="M253.4438,617.6719 L253.6156,617.75 C253.8344,617.4375 254.0375,617.3438 254.3344,617.3438 C254.6313,617.3438 254.9125,617.4844 255.0688,617.75 C255.1625,617.9063 255.1781,618.0313 255.1781,618.4688 L255.1781,619.8906 C255.1781,620.3125 255.1469,620.5 255.0375,620.6563 C254.8656,620.875 254.6,621.0156 254.3344,621.0156 C254.1156,621.0156 253.8813,620.9063 253.7406,620.7656 C253.6,620.6406 253.5688,620.5156 253.5063,620.1094 C253.4125,619.7031 253.2406,619.4844 252.7563,619.2031 C252.2875,618.9531 251.6781,618.7969 251.1,618.7969 C249.3656,618.7969 248.1156,620.1094 248.1156,621.8906 L248.1156,622.9844 C248.1156,624.6875 249.4125,625.7813 251.4594,625.7813 C252.225,625.7813 252.9125,625.6563 253.3344,625.3906 C253.5219,625.2969 253.5219,625.2969 253.975,624.8125 C254.1625,624.625 254.3656,624.5469 254.5844,624.5469 C255.0531,624.5469 255.4438,624.9375 255.4438,625.3906 C255.4438,625.7813 255.1156,626.2344 254.5375,626.6406 C253.7875,627.1875 252.6313,627.4844 251.4125,627.4844 C248.5219,627.4844 246.4125,625.5938 246.4125,623.0156 L246.4125,621.8906 C246.4125,619.1719 248.4125,617.0938 251.0375,617.0938 C251.9125,617.0938 252.5063,617.2344 253.4438,617.6719 Z "/><text fill="#000000" font-family="sans-serif" font-size="12" lengthAdjust="spacingAndGlyphs" textLength="56" x="265.9" y="626.1543">Message</text><line style="stroke: #A80036; stroke-width: 1.5;" x1="233.5" x2="327.5" y1="638" y2="638"/><rect fill="none" height="6" style="stroke: #C82930; stroke-width: 1.0;" width="6" x="240.5" y="646.9023"/><text fill="#000000" font-family="sans-serif" font-size="11" lengthAdjust="spacingAndGlyphs" textLength="70" x="252.5" y="652.2104">String: texte</text><rect fill="none" height="6" style="stroke: #C82930; stroke-width: 1.0;" width="6" x="240.5" y="659.707"/><text fill="#000000" font-family="sans-serif" font-size="11" lengthAdjust="spacingAndGlyphs" textLength="59" x="252.5" y="665.0151">Date: date</text><line style="stroke: #A80036; stroke-width: 1.5;" x1="233.5" x2="327.5" y1="671.6094" y2="671.6094"/><!--class DiscussionTexte--><rect fill="#FEFECE" filter="url(#fu0nwhy)" height="60.8047" style="stroke: #A80036; stroke-width: 1.5;" width="191" x="6" y="332"/><ellipse cx="47.1" cy="348" fill="#ADD1B2" rx="11" ry="11" style="stroke: #A80036; stroke-width: 1.0;"/><path d="M49.4438,343.6719 L49.6156,343.75 C49.8344,343.4375 50.0375,343.3438 50.3344,343.3438 C50.6313,343.3438 50.9125,343.4844 51.0688,343.75 C51.1625,343.9063 51.1781,344.0313 51.1781,344.4688 L51.1781,345.8906 C51.1781,346.3125 51.1469,346.5 51.0375,346.6563 C50.8656,346.875 50.6,347.0156 50.3344,347.0156 C50.1156,347.0156 49.8813,346.9063 49.7406,346.7656 C49.6,346.6406 49.5688,346.5156 49.5063,346.1094 C49.4125,345.7031 49.2406,345.4844 48.7563,345.2031 C48.2875,344.9531 47.6781,344.7969 47.1,344.7969 C45.3656,344.7969 44.1156,346.1094 44.1156,347.8906 L44.1156,348.9844 C44.1156,350.6875 45.4125,351.7813 47.4594,351.7813 C48.225,351.7813 48.9125,351.6563 49.3344,351.3906 C49.5219,351.2969 49.5219,351.2969 49.975,350.8125 C50.1625,350.625 50.3656,350.5469 50.5844,350.5469 C51.0531,350.5469 51.4438,350.9375 51.4438,351.3906 C51.4438,351.7813 51.1156,352.2344 50.5375,352.6406 C49.7875,353.1875 48.6313,353.4844 47.4125,353.4844 C44.5219,353.4844 42.4125,351.5938 42.4125,349.0156 L42.4125,347.8906 C42.4125,345.1719 44.4125,343.0938 47.0375,343.0938 C47.9125,343.0938 48.5063,343.2344 49.4438,343.6719 Z "/><text fill="#000000" font-family="sans-serif" font-size="12" lengthAdjust="spacingAndGlyphs" textLength="101" x="66.9" y="352.1543">DiscussionTexte</text><line style="stroke: #A80036; stroke-width: 1.5;" x1="7" x2="196" y1="364" y2="364"/><line style="stroke: #A80036; stroke-width: 1.5;" x1="7" x2="196" y1="372" y2="372"/><ellipse cx="17" cy="383.9023" fill="#84BE84" rx="3" ry="3" style="stroke: #038048; stroke-width: 1.0;"/><text fill="#000000" font-family="sans-serif" font-size="11" lengthAdjust="spacingAndGlyphs" textLength="165" x="26" y="386.2104">bool: addMessage(message)</text><!--class DiscussionAudio--><rect fill="#FEFECE" filter="url(#fu0nwhy)" height="73.6094" style="stroke: #A80036; stroke-width: 1.5;" width="134" x="232.5" y="325.5"/><ellipse cx="247.5" cy="341.5" fill="#ADD1B2" rx="11" ry="11" style="stroke: #A80036; stroke-width: 1.0;"/><path d="M249.8438,337.1719 L250.0156,337.25 C250.2344,336.9375 250.4375,336.8438 250.7344,336.8438 C251.0313,336.8438 251.3125,336.9844 251.4688,337.25 C251.5625,337.4063 251.5781,337.5313 251.5781,337.9688 L251.5781,339.3906 C251.5781,339.8125 251.5469,340 251.4375,340.1563 C251.2656,340.375 251,340.5156 250.7344,340.5156 C250.5156,340.5156 250.2813,340.4063 250.1406,340.2656 C250,340.1406 249.9688,340.0156 249.9063,339.6094 C249.8125,339.2031 249.6406,338.9844 249.1563,338.7031 C248.6875,338.4531 248.0781,338.2969 247.5,338.2969 C245.7656,338.2969 244.5156,339.6094 244.5156,341.3906 L244.5156,342.4844 C244.5156,344.1875 245.8125,345.2813 247.8594,345.2813 C248.625,345.2813 249.3125,345.1563 249.7344,344.8906 C249.9219,344.7969 249.9219,344.7969 250.375,344.3125 C250.5625,344.125 250.7656,344.0469 250.9844,344.0469 C251.4531,344.0469 251.8438,344.4375 251.8438,344.8906 C251.8438,345.2813 251.5156,345.7344 250.9375,346.1406 C250.1875,346.6875 249.0313,346.9844 247.8125,346.9844 C244.9219,346.9844 242.8125,345.0938 242.8125,342.5156 L242.8125,341.3906 C242.8125,338.6719 244.8125,336.5938 247.4375,336.5938 C248.3125,336.5938 248.9063,336.7344 249.8438,337.1719 Z "/><text fill="#000000" font-family="sans-serif" font-size="12" lengthAdjust="spacingAndGlyphs" textLength="102" x="261.5" y="345.6543">DiscussionAudio</text><line style="stroke: #A80036; stroke-width: 1.5;" x1="233.5" x2="365.5" y1="357.5" y2="357.5"/><line style="stroke: #A80036; stroke-width: 1.5;" x1="233.5" x2="365.5" y1="365.5" y2="365.5"/><ellipse cx="243.5" cy="377.4023" fill="#84BE84" rx="3" ry="3" style="stroke: #038048; stroke-width: 1.0;"/><text fill="#000000" font-family="sans-serif" font-size="11" lengthAdjust="spacingAndGlyphs" textLength="94" x="252.5" y="379.7104">bool: demarrer()</text><ellipse cx="243.5" cy="390.207" fill="#84BE84" rx="3" ry="3" style="stroke: #038048; stroke-width: 1.0;"/><text fill="#000000" font-family="sans-serif" font-size="11" lengthAdjust="spacingAndGlyphs" textLength="80" x="252.5" y="392.5151">bool: arreter()</text><!--class Serveur--><rect fill="#FEFECE" filter="url(#fu0nwhy)" height="86.4141" style="stroke: #A80036; stroke-width: 1.5;" width="284" x="157.5" y="8"/><ellipse cx="271.25" cy="24" fill="#ADD1B2" rx="11" ry="11" style="stroke: #A80036; stroke-width: 1.0;"/><path d="M273.5938,19.6719 L273.7656,19.75 C273.9844,19.4375 274.1875,19.3438 274.4844,19.3438 C274.7813,19.3438 275.0625,19.4844 275.2188,19.75 C275.3125,19.9063 275.3281,20.0313 275.3281,20.4688 L275.3281,21.8906 C275.3281,22.3125 275.2969,22.5 275.1875,22.6563 C275.0156,22.875 274.75,23.0156 274.4844,23.0156 C274.2656,23.0156 274.0313,22.9063 273.8906,22.7656 C273.75,22.6406 273.7188,22.5156 273.6563,22.1094 C273.5625,21.7031 273.3906,21.4844 272.9063,21.2031 C272.4375,20.9531 271.8281,20.7969 271.25,20.7969 C269.5156,20.7969 268.2656,22.1094 268.2656,23.8906 L268.2656,24.9844 C268.2656,26.6875 269.5625,27.7813 271.6094,27.7813 C272.375,27.7813 273.0625,27.6563 273.4844,27.3906 C273.6719,27.2969 273.6719,27.2969 274.125,26.8125 C274.3125,26.625 274.5156,26.5469 274.7344,26.5469 C275.2031,26.5469 275.5938,26.9375 275.5938,27.3906 C275.5938,27.7813 275.2656,28.2344 274.6875,28.6406 C273.9375,29.1875 272.7813,29.4844 271.5625,29.4844 C268.6719,29.4844 266.5625,27.5938 266.5625,25.0156 L266.5625,23.8906 C266.5625,21.1719 268.5625,19.0938 271.1875,19.0938 C272.0625,19.0938 272.6563,19.2344 273.5938,19.6719 Z "/><text fill="#000000" font-family="sans-serif" font-size="12" lengthAdjust="spacingAndGlyphs" textLength="48" x="291.75" y="28.1543">Serveur</text><line style="stroke: #A80036; stroke-width: 1.5;" x1="158.5" x2="440.5" y1="40" y2="40"/><rect fill="none" height="6" style="stroke: #C82930; stroke-width: 1.0;" width="6" x="165.5" y="48.9023"/><text fill="#000000" font-family="sans-serif" font-size="11" lengthAdjust="spacingAndGlyphs" textLength="128" x="177.5" y="54.2104">Socket: socketServeur</text><line style="stroke: #A80036; stroke-width: 1.5;" x1="158.5" x2="440.5" y1="60.8047" y2="60.8047"/><ellipse cx="168.5" cy="72.707" fill="#84BE84" rx="3" ry="3" style="stroke: #038048; stroke-width: 1.0;"/><text fill="#000000" font-family="sans-serif" font-size="11" lengthAdjust="spacingAndGlyphs" textLength="175" x="177.5" y="75.0151">void: addUtilisateur(utilisateur)</text><ellipse cx="168.5" cy="85.5117" fill="#84BE84" rx="3" ry="3" style="stroke: #038048; stroke-width: 1.0;"/><text fill="#000000" font-family="sans-serif" font-size="11" lengthAdjust="spacingAndGlyphs" textLength="258" x="177.5" y="87.8198">Discussion: createDiscussion(listeUtilisateur)</text><path d="M637.5,438.468 C637.5,454.903 637.5,471.373 637.5,484.76 " fill="none" style="stroke: #A80036; stroke-width: 1.0;"/><polygon fill="#A80036" points="637.5,425.353,633.5,431.353,637.5,437.353,641.5,431.353,637.5,425.353" style="stroke: #A80036; stroke-width: 1.0;"/><path d="M638.296,566.447 C638.545,582.0466 638.811,598.7486 639.029,612.4717 " fill="none" style="stroke: #A80036; stroke-width: 1.0; stroke-dasharray: 7.0,7.0;"/><polygon fill="none" points="631.294,566.351,637.974,546.242,645.292,566.128,631.294,566.351" style="stroke: #A80036; stroke-width: 1.0;"/><path d="M587.231,559.417 C563.95,579.293 537.203,602.1279 517.743,618.7412 " fill="none" style="stroke: #A80036; stroke-width: 1.0; stroke-dasharray: 7.0,7.0;"/><polygon fill="none" points="582.907,553.904,602.663,546.242,591.997,564.552,582.907,553.904" style="stroke: #A80036; stroke-width: 1.0;"/><path d="M528.574,88.337 C520.067,104.672 509.852,124.283 500.486,142.267 " fill="none" style="stroke: #A80036; stroke-width: 1.0;"/><polygon fill="#A80036" points="494.48,153.799,500.799,150.3249,500.0225,143.1557,493.7035,146.6298,494.48,153.799" style="stroke: #A80036; stroke-width: 1.0;"/><path d="M474.21,240.171 C477.723,326.843 485.704,523.701 489.016,605.4019 " fill="none" style="stroke: #A80036; stroke-width: 1.0;"/><polygon fill="#A80036" points="489.551,618.603,493.3046,612.4459,489.0648,606.6129,485.3112,612.77,489.551,618.603" style="stroke: #A80036; stroke-width: 1.0;"/><path d="M563.244,197 C568.322,197 573.4,197 578.478,197 " fill="none" style="stroke: #A80036; stroke-width: 1.0;"/><polygon fill="none" points="563.023,204,543.023,197,563.023,190,563.023,204" style="stroke: #A80036; stroke-width: 1.0;"/><path d="M529.313,254.296 C544.123,268.972 560.161,284.864 575.238,299.804 " fill="none" style="stroke: #A80036; stroke-width: 1.0;"/><polygon fill="none" points="524.271,259.155,514.992,240.105,534.125,249.21,524.271,259.155" style="stroke: #A80036; stroke-width: 1.0;"/><path d="M255.825,234.065 C220.248,263.443 170.629,304.416 137.351,331.896 " fill="none" style="stroke: #A80036; stroke-width: 1.0;"/><polygon fill="none" points="251.673,228.416,271.551,221.079,260.587,239.211,251.673,228.416" style="stroke: #A80036; stroke-width: 1.0;"/><path d="M299.5,241.151 C299.5,267.367 299.5,300.455 299.5,325.3 " fill="none" style="stroke: #A80036; stroke-width: 1.0;"/><polygon fill="none" points="292.5,241.079,299.5,221.079,306.5,241.079,292.5,241.079" style="stroke: #A80036; stroke-width: 1.0;"/><path d="M349.17,197 C366.674,197 384.178,197 401.682,197 " fill="none" style="stroke: #A80036; stroke-width: 1.0;"/><path d="M127.726,404.304 C162.641,458.627 223.852,553.864 257.213,605.769 " fill="none" style="stroke: #A80036; stroke-width: 1.0;"/><polygon fill="#A80036" points="120.487,393.041,120.3661,400.2511,126.9751,403.1358,127.096,395.9257,120.487,393.041" style="stroke: #A80036; stroke-width: 1.0;"/><path d="M456.961,240.194 C439.842,286.046 411.071,361.288 383.5,425 C357.991,483.947 325.894,550.512 304.369,594.1908 " fill="none" style="stroke: #A80036; stroke-width: 1.0;"/><polygon fill="#A80036" points="298.593,605.8784,304.8374,602.2718,303.9099,595.1206,297.6655,598.7272,298.593,605.8784" style="stroke: #A80036; stroke-width: 1.0;"/><path d="M350.004,94.038 C372.643,112.882 399.287,135.059 421.933,153.91 " fill="none" style="stroke: #A80036; stroke-width: 1.0;"/><path d="M299.5,107.131 C299.5,129.967 299.5,155.202 299.5,172.928 " fill="none" style="stroke: #A80036; stroke-width: 1.0;"/><polygon fill="#A80036" points="299.5,94.038,295.5,100.038,299.5,106.038,303.5,100.038,299.5,94.038" style="stroke: #A80036; stroke-width: 1.0;"/></g></svg>