<?xml version="1.0" encoding="UTF-8" standalone="no"?><svg xmlns="http://www.w3.org/2000/svg" xmlns:xlink="http://www.w3.org/1999/xlink" contentScriptType="application/ecmascript" contentStyleType="text/css" height="702px" preserveAspectRatio="none" style="width:595px;height:702px;" version="1.1" viewBox="0 0 595 702" width="595px" zoomAndPan="magnify"><defs><filter height="300%" id="fmbnm1g" width="300%" x="-1" y="-1"><feGaussianBlur result="blurOut" stdDeviation="2.0"/><feColorMatrix in="blurOut" result="blurOut2" type="matrix" values="0 0 0 0 0 0 0 0 0 0 0 0 0 0 0 0 0 0 .4 0"/><feOffset dx="4.0" dy="4.0" in="blurOut2" result="blurOut3"/><feBlend in="SourceGraphic" in2="blurOut3" mode="normal"/></filter></defs><g><ellipse cx="299.875" cy="20" fill="#000000" filter="url(#fmbnm1g)" rx="10" ry="10" style="stroke: none; stroke-width: 1.0;"/><rect fill="#FEFECE" filter="url(#fmbnm1g)" height="33.9688" rx="12.5" ry="12.5" style="stroke: #A80036; stroke-width: 1.5;" width="106" x="246.875" y="94"/><text fill="#000000" font-family="sans-serif" font-size="12" lengthAdjust="spacingAndGlyphs" textLength="86" x="256.875" y="115.1387">page de login</text><rect fill="#FEFECE" filter="url(#fmbnm1g)" height="33.9688" rx="12.5" ry="12.5" style="stroke: #A80036; stroke-width: 1.5;" width="199" x="200.375" y="196.3711"/><text fill="#000000" font-family="sans-serif" font-size="12" lengthAdjust="spacingAndGlyphs" textLength="179" x="210.375" y="217.5098">page de création de compte</text><polygon fill="#FEFECE" filter="url(#fmbnm1g)" points="255.875,147.9688,343.875,147.9688,355.875,159.9688,343.875,171.9688,255.875,171.9688,243.875,159.9688,255.875,147.9688" style="stroke: #A80036; stroke-width: 1.5;"/><text fill="#000000" font-family="sans-serif" font-size="11" lengthAdjust="spacingAndGlyphs" textLength="21" x="303.875" y="182.1792">non</text><text fill="#000000" font-family="sans-serif" font-size="11" lengthAdjust="spacingAndGlyphs" textLength="88" x="255.875" y="163.7769">déja un compte</text><polygon fill="#FEFECE" filter="url(#fmbnm1g)" points="299.875,250.3398,311.875,262.3398,299.875,274.3398,287.875,262.3398,299.875,250.3398" style="stroke: #A80036; stroke-width: 1.5;"/><rect fill="#FEFECE" filter="url(#fmbnm1g)" height="33.9688" rx="12.5" ry="12.5" style="stroke: #A80036; stroke-width: 1.5;" width="176" x="211.875" y="338.3398"/><text fill="#000000" font-family="sans-serif" font-size="12" lengthAdjust="spacingAndGlyphs" textLength="156" x="221.875" y="359.4785">accueil de la messagerie</text><polygon fill="#FEFECE" filter="url(#fmbnm1g)" points="192.375,405.1797,407.375,405.1797,419.375,417.1797,407.375,429.1797,192.375,429.1797,180.375,417.1797,192.375,405.1797" style="stroke: #A80036; stroke-width: 1.5;"/><text fill="#000000" font-family="sans-serif" font-size="11" lengthAdjust="spacingAndGlyphs" textLength="215" x="192.375" y="420.9878">conversation ou modification de profil</text><text fill="#000000" font-family="sans-serif" font-size="11" lengthAdjust="spacingAndGlyphs" textLength="73" x="107.375" y="414.5854">conversation</text><text fill="#000000" font-family="sans-serif" font-size="11" lengthAdjust="spacingAndGlyphs" textLength="120" x="419.375" y="414.5854">modification de profil</text><polygon fill="#FEFECE" filter="url(#fmbnm1g)" points="122.75,439.1797,195.75,439.1797,207.75,451.1797,195.75,463.1797,122.75,463.1797,110.75,451.1797,122.75,439.1797" style="stroke: #A80036; stroke-width: 1.5;"/><text fill="#000000" font-family="sans-serif" font-size="11" lengthAdjust="spacingAndGlyphs" textLength="73" x="122.75" y="454.9878">conversation</text><rect fill="#FEFECE" filter="url(#fmbnm1g)" height="33.9688" rx="12.5" ry="12.5" style="stroke: #A80036; stroke-width: 1.5;" width="140" x="10" y="473.1797"/><text fill="#000000" font-family="sans-serif" font-size="12" lengthAdjust="spacingAndGlyphs" textLength="120" x="20" y="494.3184">conversation audio</text><rect fill="#FEFECE" filter="url(#fmbnm1g)" height="33.9688" rx="12.5" ry="12.5" style="stroke: #A80036; stroke-width: 1.5;" width="137" x="170" y="473.1797"/><text fill="#000000" font-family="sans-serif" font-size="12" lengthAdjust="spacingAndGlyphs" textLength="117" x="180" y="494.3184">conversation texte</text><polygon fill="#FEFECE" filter="url(#fmbnm1g)" points="159.25,513.1484,171.25,525.1484,159.25,537.1484,147.25,525.1484,159.25,513.1484" style="stroke: #A80036; stroke-width: 1.5;"/><rect fill="#FEFECE" filter="url(#fmbnm1g)" height="33.9688" rx="12.5" ry="12.5" style="stroke: #A80036; stroke-width: 1.5;" width="207" x="337" y="439.1797"/><text fill="#000000" font-family="sans-serif" font-size="12" lengthAdjust="spacingAndGlyphs" textLength="187" x="347" y="460.3184">page de modification de profil</text><polygon fill="#FEFECE" filter="url(#fmbnm1g)" points="299.875,543.1484,311.875,555.1484,299.875,567.1484,287.875,555.1484,299.875,543.1484" style="stroke: #A80036; stroke-width: 1.5;"/><polygon fill="#FEFECE" filter="url(#fmbnm1g)" points="299.875,294.3398,311.875,306.3398,299.875,318.3398,287.875,306.3398,299.875,294.3398" style="stroke: #A80036; stroke-width: 1.5;"/><polygon fill="#FEFECE" filter="url(#fmbnm1g)" points="265.875,587.1484,333.875,587.1484,345.875,599.1484,333.875,611.1484,265.875,611.1484,253.875,599.1484,265.875,587.1484" style="stroke: #A80036; stroke-width: 1.5;"/><text fill="#000000" font-family="sans-serif" font-size="11" lengthAdjust="spacingAndGlyphs" textLength="68" x="265.875" y="602.9565">autre action</text><polygon fill="#FEFECE" filter="url(#fmbnm1g)" points="299.875,50,311.875,62,299.875,74,287.875,62,299.875,50" style="stroke: #A80036; stroke-width: 1.5;"/><polygon fill="#FEFECE" filter="url(#fmbnm1g)" points="264.375,631.1484,335.375,631.1484,347.375,643.1484,335.375,655.1484,264.375,655.1484,252.375,643.1484,264.375,631.1484" style="stroke: #A80036; stroke-width: 1.5;"/><text fill="#000000" font-family="sans-serif" font-size="11" lengthAdjust="spacingAndGlyphs" textLength="71" x="264.375" y="646.9565">deconnexion</text><ellipse cx="299.875" cy="685.1484" fill="none" filter="url(#fmbnm1g)" rx="10" ry="10" style="stroke: #000000; stroke-width: 1.0;"/><ellipse cx="300.375" cy="685.6484" fill="#000000" filter="url(#fmbnm1g)" rx="6" ry="6" style="stroke: none; stroke-width: 1.0;"/><line style="stroke: #A80036; stroke-width: 1.5;" x1="299.875" x2="299.875" y1="171.9688" y2="196.3711"/><polygon fill="#A80036" points="295.875,186.3711,299.875,196.3711,303.875,186.3711,299.875,190.3711" style="stroke: #A80036; stroke-width: 1.0;"/><line style="stroke: #A80036; stroke-width: 1.5;" x1="355.875" x2="409.375" y1="159.9688" y2="159.9688"/><polygon fill="#A80036" points="405.375,203.3555,409.375,213.3555,413.375,203.3555,409.375,207.3555" style="stroke: #A80036; stroke-width: 1.5;"/><line style="stroke: #A80036; stroke-width: 1.5;" x1="409.375" x2="409.375" y1="159.9688" y2="262.3398"/><line style="stroke: #A80036; stroke-width: 1.5;" x1="409.375" x2="311.875" y1="262.3398" y2="262.3398"/><polygon fill="#A80036" points="321.875,258.3398,311.875,262.3398,321.875,266.3398,317.875,262.3398" style="stroke: #A80036; stroke-width: 1.0;"/><line style="stroke: #A80036; stroke-width: 1.5;" x1="299.875" x2="299.875" y1="230.3398" y2="250.3398"/><polygon fill="#A80036" points="295.875,240.3398,299.875,250.3398,303.875,240.3398,299.875,244.3398" style="stroke: #A80036; stroke-width: 1.0;"/><line style="stroke: #A80036; stroke-width: 1.5;" x1="299.875" x2="299.875" y1="127.9688" y2="147.9688"/><polygon fill="#A80036" points="295.875,137.9688,299.875,147.9688,303.875,137.9688,299.875,141.9688" style="stroke: #A80036; stroke-width: 1.0;"/><line style="stroke: #A80036; stroke-width: 1.5;" x1="110.75" x2="80" y1="451.1797" y2="451.1797"/><line style="stroke: #A80036; stroke-width: 1.5;" x1="80" x2="80" y1="451.1797" y2="473.1797"/><polygon fill="#A80036" points="76,463.1797,80,473.1797,84,463.1797,80,467.1797" style="stroke: #A80036; stroke-width: 1.0;"/><line style="stroke: #A80036; stroke-width: 1.5;" x1="207.75" x2="238.5" y1="451.1797" y2="451.1797"/><line style="stroke: #A80036; stroke-width: 1.5;" x1="238.5" x2="238.5" y1="451.1797" y2="473.1797"/><polygon fill="#A80036" points="234.5,463.1797,238.5,473.1797,242.5,463.1797,238.5,467.1797" style="stroke: #A80036; stroke-width: 1.0;"/><line style="stroke: #A80036; stroke-width: 1.5;" x1="80" x2="80" y1="507.1484" y2="525.1484"/><line style="stroke: #A80036; stroke-width: 1.5;" x1="80" x2="147.25" y1="525.1484" y2="525.1484"/><polygon fill="#A80036" points="137.25,521.1484,147.25,525.1484,137.25,529.1484,141.25,525.1484" style="stroke: #A80036; stroke-width: 1.0;"/><line style="stroke: #A80036; stroke-width: 1.5;" x1="238.5" x2="238.5" y1="507.1484" y2="525.1484"/><line style="stroke: #A80036; stroke-width: 1.5;" x1="238.5" x2="171.25" y1="525.1484" y2="525.1484"/><polygon fill="#A80036" points="181.25,521.1484,171.25,525.1484,181.25,529.1484,177.25,525.1484" style="stroke: #A80036; stroke-width: 1.0;"/><line style="stroke: #A80036; stroke-width: 1.5;" x1="180.375" x2="159.25" y1="417.1797" y2="417.1797"/><line style="stroke: #A80036; stroke-width: 1.5;" x1="159.25" x2="159.25" y1="417.1797" y2="439.1797"/><polygon fill="#A80036" points="155.25,429.1797,159.25,439.1797,163.25,429.1797,159.25,433.1797" style="stroke: #A80036; stroke-width: 1.0;"/><line style="stroke: #A80036; stroke-width: 1.5;" x1="419.375" x2="440.5" y1="417.1797" y2="417.1797"/><line style="stroke: #A80036; stroke-width: 1.5;" x1="440.5" x2="440.5" y1="417.1797" y2="439.1797"/><polygon fill="#A80036" points="436.5,429.1797,440.5,439.1797,444.5,429.1797,440.5,433.1797" style="stroke: #A80036; stroke-width: 1.0;"/><line style="stroke: #A80036; stroke-width: 1.5;" x1="159.25" x2="159.25" y1="537.1484" y2="555.1484"/><line style="stroke: #A80036; stroke-width: 1.5;" x1="159.25" x2="287.875" y1="555.1484" y2="555.1484"/><polygon fill="#A80036" points="277.875,551.1484,287.875,555.1484,277.875,559.1484,281.875,555.1484" style="stroke: #A80036; stroke-width: 1.0;"/><line style="stroke: #A80036; stroke-width: 1.5;" x1="440.5" x2="440.5" y1="473.1484" y2="555.1484"/><line style="stroke: #A80036; stroke-width: 1.5;" x1="440.5" x2="311.875" y1="555.1484" y2="555.1484"/><polygon fill="#A80036" points="321.875,551.1484,311.875,555.1484,321.875,559.1484,317.875,555.1484" style="stroke: #A80036; stroke-width: 1.0;"/><line style="stroke: #A80036; stroke-width: 1.5;" x1="299.875" x2="299.875" y1="372.3086" y2="405.1797"/><polygon fill="#A80036" points="295.875,395.1797,299.875,405.1797,303.875,395.1797,299.875,399.1797" style="stroke: #A80036; stroke-width: 1.0;"/><line style="stroke: #A80036; stroke-width: 1.5;" x1="299.875" x2="299.875" y1="318.3398" y2="338.3398"/><polygon fill="#A80036" points="295.875,328.3398,299.875,338.3398,303.875,328.3398,299.875,332.3398" style="stroke: #A80036; stroke-width: 1.0;"/><line style="stroke: #A80036; stroke-width: 1.5;" x1="345.875" x2="566" y1="599.1484" y2="599.1484"/><polygon fill="#A80036" points="562,485.6797,566,475.6797,570,485.6797,566,481.6797" style="stroke: #A80036; stroke-width: 1.5;"/><line style="stroke: #A80036; stroke-width: 1.5;" x1="566" x2="566" y1="306.3398" y2="599.1484"/><line style="stroke: #A80036; stroke-width: 1.5;" x1="566" x2="311.875" y1="306.3398" y2="306.3398"/><polygon fill="#A80036" points="321.875,302.3398,311.875,306.3398,321.875,310.3398,317.875,306.3398" style="stroke: #A80036; stroke-width: 1.0;"/><line style="stroke: #A80036; stroke-width: 1.5;" x1="299.875" x2="299.875" y1="567.1484" y2="587.1484"/><polygon fill="#A80036" points="295.875,577.1484,299.875,587.1484,303.875,577.1484,299.875,581.1484" style="stroke: #A80036; stroke-width: 1.0;"/><line style="stroke: #A80036; stroke-width: 1.5;" x1="299.875" x2="299.875" y1="274.3398" y2="294.3398"/><polygon fill="#A80036" points="295.875,284.3398,299.875,294.3398,303.875,284.3398,299.875,288.3398" style="stroke: #A80036; stroke-width: 1.0;"/><line style="stroke: #A80036; stroke-width: 1.5;" x1="299.875" x2="299.875" y1="74" y2="94"/><polygon fill="#A80036" points="295.875,84,299.875,94,303.875,84,299.875,88" style="stroke: #A80036; stroke-width: 1.0;"/><line style="stroke: #A80036; stroke-width: 1.5;" x1="347.375" x2="590" y1="643.1484" y2="643.1484"/><polygon fill="#A80036" points="586,392.3086,590,382.3086,594,392.3086,590,388.3086" style="stroke: #A80036; stroke-width: 1.5;"/><line style="stroke: #A80036; stroke-width: 1.5;" x1="590" x2="590" y1="62" y2="643.1484"/><line style="stroke: #A80036; stroke-width: 1.5;" x1="590" x2="311.875" y1="62" y2="62"/><polygon fill="#A80036" points="321.875,58,311.875,62,321.875,66,317.875,62" style="stroke: #A80036; stroke-width: 1.0;"/><line style="stroke: #A80036; stroke-width: 1.5;" x1="299.875" x2="299.875" y1="611.1484" y2="631.1484"/><polygon fill="#A80036" points="295.875,621.1484,299.875,631.1484,303.875,621.1484,299.875,625.1484" style="stroke: #A80036; stroke-width: 1.0;"/><line style="stroke: #A80036; stroke-width: 1.5;" x1="299.875" x2="299.875" y1="30" y2="50"/><polygon fill="#A80036" points="295.875,40,299.875,50,303.875,40,299.875,44" style="stroke: #A80036; stroke-width: 1.0;"/><line style="stroke: #A80036; stroke-width: 1.5;" x1="299.875" x2="299.875" y1="655.1484" y2="675.1484"/><polygon fill="#A80036" points="295.875,665.1484,299.875,675.1484,303.875,665.1484,299.875,669.1484" style="stroke: #A80036; stroke-width: 1.0;"/></g></svg>